<svg width="1600" height="1060" viewBox="0 0 1600 1060" fill="none" xmlns="http://www.w3.org/2000/svg">
<g clip-path="url(#clip0_186_444)">
<g opacity="0.7">
<path d="M-14.6102 612.985C-43.5909 439.049 69.8686 252.502 328.811 220.179C537.473 194.088 1020 299.9 1079.41 -137.84" stroke="url(#paint0_linear_186_444)" stroke-width="1.5" stroke-miterlimit="10" stroke-linecap="round"/>
<path d="M-35.9113 604.434C-55.0386 425.569 68.7091 236.993 337.94 214.091C551.528 195.973 1021.16 309.176 1091.87 -116.388" stroke="url(#paint1_linear_186_444)" stroke-width="1.4559" stroke-miterlimit="10" stroke-linecap="round"/>
<path d="M-57.067 596.027C-66.4857 412.234 67.695 221.338 347.359 208.148C565.874 197.857 1022.61 318.453 1104.48 -94.936" stroke="url(#paint2_linear_186_444)" stroke-width="1.4118" stroke-miterlimit="10" stroke-linecap="round"/>
<path d="M-78.3682 587.62C-77.9335 398.899 66.3906 205.684 356.488 202.205C579.784 199.451 1023.77 327.73 1116.94 -73.4839" stroke="url(#paint3_linear_186_444)" stroke-width="1.3676" stroke-miterlimit="10" stroke-linecap="round"/>
<path d="M-99.5239 579.213C-89.2358 385.564 65.2315 189.74 365.762 196.263C593.84 201.191 1025.07 337.151 1129.4 -51.8867" stroke="url(#paint4_linear_186_444)" stroke-width="1.3235" stroke-miterlimit="10" stroke-linecap="round"/>
<path d="M-120.825 570.661C-100.683 372.083 63.9274 173.651 375.035 190.175C607.896 202.495 1026.38 346.428 1142.01 -30.4346" stroke="url(#paint5_linear_186_444)" stroke-width="1.2794" stroke-miterlimit="10" stroke-linecap="round"/>
<path d="M-141.98 562.254C-112.13 358.603 62.6235 157.417 384.31 184.087C621.951 203.8 1027.68 355.559 1154.47 -8.98242" stroke="url(#paint6_linear_186_444)" stroke-width="1.2353" stroke-miterlimit="10" stroke-linecap="round"/>
<path d="M-163.281 553.847C-123.578 345.268 61.3193 141.183 393.583 178.144C636.007 205.104 1028.84 364.981 1167.08 12.4697" stroke="url(#paint7_linear_186_444)" stroke-width="1.1912" stroke-miterlimit="10" stroke-linecap="round"/>
<path d="M-184.438 545.44C-135.025 331.933 60.0149 124.804 402.857 172.201C650.207 206.409 1030.14 374.258 1179.69 34.0669" stroke="url(#paint8_linear_186_444)" stroke-width="1.1471" stroke-miterlimit="10" stroke-linecap="round"/>
<path d="M-205.593 536.888C-146.328 318.453 58.8559 108.28 412.131 166.114C664.263 207.423 1031.45 383.534 1192.15 55.374" stroke="url(#paint9_linear_186_444)" stroke-width="1.1029" stroke-miterlimit="10" stroke-linecap="round"/>
<path d="M-226.894 528.481C-157.92 305.118 57.5518 91.7558 421.405 160.171C678.319 208.583 1032.75 392.811 1204.75 76.9712" stroke="url(#paint10_linear_186_444)" stroke-width="1.0588" stroke-miterlimit="10" stroke-linecap="round"/>
<path d="M-248.05 520.074C-169.223 291.783 56.5371 75.087 430.678 154.228C692.519 209.598 1034.06 402.232 1217.22 98.5684" stroke="url(#paint11_linear_186_444)" stroke-width="1.0147" stroke-miterlimit="10" stroke-linecap="round"/>
<path d="M-269.351 511.667C-180.67 278.448 55.233 58.418 439.807 148.285C706.575 210.612 1035.22 411.509 1229.68 120.021" stroke="url(#paint12_linear_186_444)" stroke-width="0.9706" stroke-miterlimit="10" stroke-linecap="round"/>
<path d="M-290.507 503.116C-192.117 264.968 54.2189 41.4592 449.081 142.197C720.631 211.482 1036.52 420.786 1242.14 141.473" stroke="url(#paint13_linear_186_444)" stroke-width="0.9265" stroke-miterlimit="10" stroke-linecap="round"/>
<path d="M-311.808 494.709C-203.565 251.632 53.0597 24.6452 458.355 136.11C734.831 212.207 1037.82 429.917 1254.75 162.78" stroke="url(#paint14_linear_186_444)" stroke-width="0.8824" stroke-miterlimit="10" stroke-linecap="round"/>
<path d="M-332.964 486.302C-214.867 238.152 52.0451 7.6864 467.629 130.167C749.176 213.076 1039.13 439.339 1267.35 184.377" stroke="url(#paint15_linear_186_444)" stroke-width="0.8382" stroke-miterlimit="10" stroke-linecap="round"/>
<path d="M-354.265 477.895C-226.46 224.817 51.1757 -9.85216 476.903 124.224C763.522 213.656 1040.43 448.615 1279.81 205.974" stroke="url(#paint16_linear_186_444)" stroke-width="0.7941" stroke-miterlimit="10" stroke-linecap="round"/>
<path d="M-375.42 469.488C-237.762 211.482 50.1615 -26.231 486.177 118.281C777.578 214.816 1041.74 458.037 1292.42 227.426" stroke="url(#paint17_linear_186_444)" stroke-width="0.75" stroke-miterlimit="10" stroke-linecap="round"/>
</g>
</g>
<g clip-path="url(#clip1_186_444)">
<g opacity="0.7">
<path d="M909.084 901.61C810.828 782.689 838.438 351.485 1095.11 348.107C1316.11 345.212 1455.81 470.853 1532.35 559.386C1598.16 635.432 1668.84 772.494 1668.84 772.494" stroke="url(#paint18_linear_186_444)" stroke-width="1.5" stroke-miterlimit="10" stroke-linecap="round"/>
<path d="M882.661 891.28C794.196 767.902 828.845 355.415 1080.12 351.497C1296.05 348.115 1435.35 469.326 1512.67 557.874C1581.67 636.34 1653.81 774.758 1656.01 786.756" stroke="url(#paint19_linear_186_444)" stroke-width="1.4583" stroke-miterlimit="10" stroke-linecap="round"/>
<path d="M856.33 881.077C777.545 753.224 819.344 359.471 1065.11 354.996C1276.06 351.255 1414.71 468.218 1493.1 556.38C1565.05 637.339 1638.87 777.149 1643.19 800.91" stroke="url(#paint20_linear_186_444)" stroke-width="1.4167" stroke-miterlimit="10" stroke-linecap="round"/>
<path d="M829.89 870.857C761.022 738.455 809.861 363.419 1050.1 358.495C1255.96 354.377 1394.1 466.891 1473.51 554.994C1548.54 638.356 1623.82 779.522 1630.34 815.281" stroke="url(#paint21_linear_186_444)" stroke-width="1.375" stroke-miterlimit="10" stroke-linecap="round"/>
<path d="M803.576 860.545C744.372 723.777 800.359 367.475 1035.21 362.012C1235.99 357.407 1373.71 465.6 1453.92 553.608C1532.03 639.373 1608.88 781.913 1617.61 829.561" stroke="url(#paint22_linear_186_444)" stroke-width="1.3333" stroke-miterlimit="10" stroke-linecap="round"/>
<path d="M777.136 850.324C727.74 708.99 790.876 371.422 1020.2 365.511C1216.01 360.547 1353.23 464.182 1434.33 552.223C1515.63 640.408 1593.94 784.304 1604.76 843.932" stroke="url(#paint23_linear_186_444)" stroke-width="1.2917" stroke-miterlimit="10" stroke-linecap="round"/>
<path d="M750.695 840.104C711.09 694.312 781.265 375.461 1005.08 368.993C1196.04 363.577 1332.75 462.764 1414.65 550.711C1499.03 641.298 1578.91 786.568 1591.94 858.085" stroke="url(#paint24_linear_186_444)" stroke-width="1.25" stroke-miterlimit="10" stroke-linecap="round"/>
<path d="M724.382 829.792C694.566 679.543 771.891 379.426 990.199 372.401C1175.96 366.59 1312.37 461.473 1395.08 549.216C1482.65 642.224 1563.97 788.959 1579.1 872.347" stroke="url(#paint25_linear_186_444)" stroke-width="1.2083" stroke-miterlimit="10" stroke-linecap="round"/>
<path d="M697.942 819.571C677.916 664.865 762.298 383.356 975.191 375.9C1155.99 369.621 1291.89 460.055 1375.38 547.813C1466.03 643.223 1548.81 791.314 1566.25 886.719" stroke="url(#paint26_linear_186_444)" stroke-width="1.1667" stroke-miterlimit="10" stroke-linecap="round"/>
<path d="M671.611 809.368C661.284 650.078 752.906 387.43 960.183 379.399C1136 372.76 1271.52 458.655 1355.79 546.427C1449.65 644.149 1533.87 793.705 1553.42 900.981" stroke="url(#paint27_linear_186_444)" stroke-width="1.125" stroke-miterlimit="10" stroke-linecap="round"/>
<path d="M645.188 799.039C644.743 635.418 743.423 391.377 945.175 382.899C1115.92 375.773 1251.04 457.237 1336.11 544.915C1433.18 644.948 1518.84 795.969 1540.58 915.243" stroke="url(#paint28_linear_186_444)" stroke-width="1.0833" stroke-miterlimit="10" stroke-linecap="round"/>
<path d="M618.857 788.836C628.11 620.631 733.939 395.325 930.294 386.306C1095.95 378.804 1230.68 455.728 1316.63 543.547C1416.89 646 1503.99 798.486 1527.85 929.523" stroke="url(#paint29_linear_186_444)" stroke-width="1.0417" stroke-miterlimit="10" stroke-linecap="round"/>
<path d="M592.417 778.615C611.46 605.953 724.328 399.363 915.285 389.806C1075.98 381.834 1210.31 454.327 1296.95 542.035C1400.41 646.799 1488.85 800.733 1514.91 943.768" stroke="url(#paint30_linear_186_444)" stroke-miterlimit="10" stroke-linecap="round"/>
<path d="M566.103 768.303C594.937 591.184 714.954 403.328 900.295 393.196C1056.02 384.865 1189.96 452.818 1277.38 540.54C1384.05 647.616 1473.93 803.014 1502.2 957.938" stroke="url(#paint31_linear_186_444)" stroke-width="0.9583" stroke-miterlimit="10" stroke-linecap="round"/>
<path d="M539.663 758.083C578.305 576.397 705.361 407.258 885.287 396.695C1035.92 387.987 1169.48 451.4 1257.68 539.137C1367.56 648.524 1458.88 805.388 1489.24 972.292" stroke="url(#paint32_linear_186_444)" stroke-width="0.9167" stroke-miterlimit="10" stroke-linecap="round"/>
<path d="M513.223 747.862C561.655 561.719 695.86 411.314 870.279 400.194C1015.95 391.017 1149.11 450 1238.09 537.752C1351.3 649.358 1443.94 807.778 1476.51 986.572" stroke="url(#paint33_linear_186_444)" stroke-width="0.875" stroke-miterlimit="10" stroke-linecap="round"/>
<path d="M486.909 737.55C545.004 547.041 686.376 415.262 855.271 403.694C995.853 394.139 1128.89 448.399 1218.39 536.348C1334.96 650.066 1428.87 810.261 1463.55 1000.93" stroke="url(#paint34_linear_186_444)" stroke-width="0.8333" stroke-miterlimit="10" stroke-linecap="round"/>
<path d="M460.469 727.33C528.481 532.272 676.876 419.318 840.263 407.193C975.884 397.17 1108.41 446.981 1198.82 534.854C1318.58 650.991 1413.95 812.542 1450.82 1015.21" stroke="url(#paint35_linear_186_444)" stroke-width="0.7917" stroke-miterlimit="10" stroke-linecap="round"/>
<path d="M434.138 717.127C576.088 352.6 977.756 339.375 1179.23 533.468C1302.19 651.917 1398.9 814.915 1437.99 1029.47" stroke="url(#paint36_linear_186_444)" stroke-width="0.75" stroke-miterlimit="10" stroke-linecap="round"/>
</g>
</g>
<defs>
<linearGradient id="paint0_linear_186_444" x1="530.191" y1="-137.84" x2="530.191" y2="612.985" gradientUnits="userSpaceOnUse">
<stop stop-color="#5665AE"/>
<stop offset="1" stop-color="#615AA6"/>
</linearGradient>
<linearGradient id="paint1_linear_186_444" x1="527.021" y1="-116.388" x2="527.021" y2="604.434" gradientUnits="userSpaceOnUse">
<stop stop-color="#5665AE"/>
<stop offset="1" stop-color="#615AA6"/>
</linearGradient>
<linearGradient id="paint2_linear_186_444" x1="523.475" y1="-94.936" x2="523.475" y2="596.027" gradientUnits="userSpaceOnUse">
<stop stop-color="#5665AE"/>
<stop offset="1" stop-color="#615AA6"/>
</linearGradient>
<linearGradient id="paint3_linear_186_444" x1="519.287" y1="-73.4839" x2="519.287" y2="587.62" gradientUnits="userSpaceOnUse">
<stop stop-color="#5665AE"/>
<stop offset="1" stop-color="#615AA6"/>
</linearGradient>
<linearGradient id="paint4_linear_186_444" x1="514.94" y1="-51.8867" x2="514.94" y2="579.213" gradientUnits="userSpaceOnUse">
<stop stop-color="#5665AE"/>
<stop offset="1" stop-color="#615AA6"/>
</linearGradient>
<linearGradient id="paint5_linear_186_444" x1="510.593" y1="-30.4346" x2="510.593" y2="570.661" gradientUnits="userSpaceOnUse">
<stop stop-color="#5665AE"/>
<stop offset="1" stop-color="#615AA6"/>
</linearGradient>
<linearGradient id="paint6_linear_186_444" x1="506.246" y1="-8.98242" x2="506.246" y2="562.254" gradientUnits="userSpaceOnUse">
<stop stop-color="#5665AE"/>
<stop offset="1" stop-color="#615AA6"/>
</linearGradient>
<linearGradient id="paint7_linear_186_444" x1="501.899" y1="12.4697" x2="501.899" y2="553.847" gradientUnits="userSpaceOnUse">
<stop stop-color="#5665AE"/>
<stop offset="1" stop-color="#615AA6"/>
</linearGradient>
<linearGradient id="paint8_linear_186_444" x1="497.624" y1="34.0669" x2="497.624" y2="545.44" gradientUnits="userSpaceOnUse">
<stop stop-color="#5665AE"/>
<stop offset="1" stop-color="#615AA6"/>
</linearGradient>
<linearGradient id="paint9_linear_186_444" x1="493.277" y1="55.374" x2="493.277" y2="536.888" gradientUnits="userSpaceOnUse">
<stop stop-color="#5665AE"/>
<stop offset="1" stop-color="#615AA6"/>
</linearGradient>
<linearGradient id="paint10_linear_186_444" x1="488.93" y1="76.9712" x2="488.93" y2="528.481" gradientUnits="userSpaceOnUse">
<stop stop-color="#5665AE"/>
<stop offset="1" stop-color="#615AA6"/>
</linearGradient>
<linearGradient id="paint11_linear_186_444" x1="484.582" y1="98.5684" x2="484.582" y2="520.074" gradientUnits="userSpaceOnUse">
<stop stop-color="#5665AE"/>
<stop offset="1" stop-color="#615AA6"/>
</linearGradient>
<linearGradient id="paint12_linear_186_444" x1="480.163" y1="120.021" x2="480.163" y2="511.667" gradientUnits="userSpaceOnUse">
<stop stop-color="#5665AE"/>
<stop offset="1" stop-color="#615AA6"/>
</linearGradient>
<linearGradient id="paint13_linear_186_444" x1="475.816" y1="117.411" x2="475.816" y2="503.116" gradientUnits="userSpaceOnUse">
<stop stop-color="#5665AE"/>
<stop offset="1" stop-color="#615AA6"/>
</linearGradient>
<linearGradient id="paint14_linear_186_444" x1="471.469" y1="106.936" x2="471.469" y2="494.709" gradientUnits="userSpaceOnUse">
<stop stop-color="#5665AE"/>
<stop offset="1" stop-color="#615AA6"/>
</linearGradient>
<linearGradient id="paint15_linear_186_444" x1="467.194" y1="96.2769" x2="467.194" y2="486.302" gradientUnits="userSpaceOnUse">
<stop stop-color="#5665AE"/>
<stop offset="1" stop-color="#615AA6"/>
</linearGradient>
<linearGradient id="paint16_linear_186_444" x1="462.774" y1="85.2241" x2="462.774" y2="477.895" gradientUnits="userSpaceOnUse">
<stop stop-color="#5665AE"/>
<stop offset="1" stop-color="#615AA6"/>
</linearGradient>
<linearGradient id="paint17_linear_186_444" x1="458.5" y1="74.4551" x2="458.5" y2="469.488" gradientUnits="userSpaceOnUse">
<stop stop-color="#5665AE"/>
<stop offset="1" stop-color="#615AA6"/>
</linearGradient>
<linearGradient id="paint18_linear_186_444" x1="1317.41" y1="375.722" x2="1223.85" y2="952.653" gradientUnits="userSpaceOnUse">
<stop stop-color="#5665AE"/>
<stop offset="1" stop-color="#615AA6"/>
</linearGradient>
<linearGradient id="paint19_linear_186_444" x1="1303.26" y1="379.107" x2="1211.55" y2="944.613" gradientUnits="userSpaceOnUse">
<stop stop-color="#5665AE"/>
<stop offset="1" stop-color="#615AA6"/>
</linearGradient>
<linearGradient id="paint20_linear_186_444" x1="1288.91" y1="382.621" x2="1199.07" y2="936.656" gradientUnits="userSpaceOnUse">
<stop stop-color="#5665AE"/>
<stop offset="1" stop-color="#615AA6"/>
</linearGradient>
<linearGradient id="paint21_linear_186_444" x1="1274.36" y1="386.077" x2="1186.37" y2="928.665" gradientUnits="userSpaceOnUse">
<stop stop-color="#5665AE"/>
<stop offset="1" stop-color="#615AA6"/>
</linearGradient>
<linearGradient id="paint22_linear_186_444" x1="1259.6" y1="389.45" x2="1173.48" y2="920.529" gradientUnits="userSpaceOnUse">
<stop stop-color="#5665AE"/>
<stop offset="1" stop-color="#615AA6"/>
</linearGradient>
<linearGradient id="paint23_linear_186_444" x1="1244.47" y1="392.781" x2="1160.2" y2="912.442" gradientUnits="userSpaceOnUse">
<stop stop-color="#5665AE"/>
<stop offset="1" stop-color="#615AA6"/>
</linearGradient>
<linearGradient id="paint24_linear_186_444" x1="1228.99" y1="395.999" x2="1146.56" y2="904.297" gradientUnits="userSpaceOnUse">
<stop stop-color="#5665AE"/>
<stop offset="1" stop-color="#615AA6"/>
</linearGradient>
<linearGradient id="paint25_linear_186_444" x1="1213.18" y1="399.096" x2="1132.6" y2="895.989" gradientUnits="userSpaceOnUse">
<stop stop-color="#5665AE"/>
<stop offset="1" stop-color="#615AA6"/>
</linearGradient>
<linearGradient id="paint26_linear_186_444" x1="1196.85" y1="402.142" x2="1118.11" y2="887.706" gradientUnits="userSpaceOnUse">
<stop stop-color="#5665AE"/>
<stop offset="1" stop-color="#615AA6"/>
</linearGradient>
<linearGradient id="paint27_linear_186_444" x1="1180.04" y1="405.131" x2="1103.14" y2="879.346" gradientUnits="userSpaceOnUse">
<stop stop-color="#5665AE"/>
<stop offset="1" stop-color="#615AA6"/>
</linearGradient>
<linearGradient id="paint28_linear_186_444" x1="1162.65" y1="407.96" x2="1087.6" y2="870.781" gradientUnits="userSpaceOnUse">
<stop stop-color="#5665AE"/>
<stop offset="1" stop-color="#615AA6"/>
</linearGradient>
<linearGradient id="paint29_linear_186_444" x1="1144.72" y1="410.607" x2="1071.49" y2="862.234" gradientUnits="userSpaceOnUse">
<stop stop-color="#5665AE"/>
<stop offset="1" stop-color="#615AA6"/>
</linearGradient>
<linearGradient id="paint30_linear_186_444" x1="1125.98" y1="413.157" x2="1052.1" y2="868.719" gradientUnits="userSpaceOnUse">
<stop stop-color="#5665AE"/>
<stop offset="1" stop-color="#615AA6"/>
</linearGradient>
<linearGradient id="paint31_linear_186_444" x1="1106.73" y1="415.527" x2="1031.16" y2="881.554" gradientUnits="userSpaceOnUse">
<stop stop-color="#5665AE"/>
<stop offset="1" stop-color="#615AA6"/>
</linearGradient>
<linearGradient id="paint32_linear_186_444" x1="1086.99" y1="417.888" x2="1009.69" y2="894.529" gradientUnits="userSpaceOnUse">
<stop stop-color="#5665AE"/>
<stop offset="1" stop-color="#615AA6"/>
</linearGradient>
<linearGradient id="paint33_linear_186_444" x1="1067.36" y1="420.179" x2="988.35" y2="907.411" gradientUnits="userSpaceOnUse">
<stop stop-color="#5665AE"/>
<stop offset="1" stop-color="#615AA6"/>
</linearGradient>
<linearGradient id="paint34_linear_186_444" x1="1047.69" y1="422.424" x2="966.934" y2="920.394" gradientUnits="userSpaceOnUse">
<stop stop-color="#5665AE"/>
<stop offset="1" stop-color="#615AA6"/>
</linearGradient>
<linearGradient id="paint35_linear_186_444" x1="1028.08" y1="424.604" x2="945.591" y2="933.276" gradientUnits="userSpaceOnUse">
<stop stop-color="#5665AE"/>
<stop offset="1" stop-color="#615AA6"/>
</linearGradient>
<linearGradient id="paint36_linear_186_444" x1="1008.48" y1="426.746" x2="924.248" y2="946.159" gradientUnits="userSpaceOnUse">
<stop stop-color="#5665AE"/>
<stop offset="1" stop-color="#615AA6"/>
</linearGradient>
<clipPath id="clip0_186_444">
<rect width="1669" height="753" fill="white" transform="translate(-376 -139)"/>
</clipPath>
<clipPath id="clip1_186_444">
<rect width="1228.86" height="627.305" fill="white" transform="translate(510.413 244) rotate(9.21096)"/>
</clipPath>
</defs>
</svg>
