<svg width="154" height="134" viewBox="0 0 154 134" fill="none" xmlns="http://www.w3.org/2000/svg">
<path fill-rule="evenodd" clip-rule="evenodd" d="M153.7 57.9C153.7 55.5 153.5 53.1 153.1 50.7C152.5 47.2 151.5 43.7 150.3 40.4C149.1 37.1 147.6 34.1 145.8 31.1C144.2 28.5 142.6 26 140.5 23.7C139 22.1 137.6 20.4 135.9 18.9C134.1 17.3 132.3 15.7 130.5 14.2C129.7 13.5 128.8 12.8 127.7 12.5C127.2 12.1 126.8 11.7 126.3 11.4C124.4 10.3 122.4 9.09996 120.4 8.09996C119.4 7.59996 118.4 6.89996 117.3 6.69996C116.4 6.09996 115.4 5.79996 114.3 5.59996C114 4.99996 113.5 4.99996 112.9 5.09996C112.8 4.99996 112.8 4.89996 112.7 4.79996C110.7 3.99996 108.7 3.29996 106.6 2.89996C106.5 2.79996 106.4 2.69996 106.3 2.69996C103 1.79996 99.6 1.19996 96.2 0.699957C93.5 0.399957 90.8 0.199957 88.1 -4.30271e-05C84.8 -0.200043 81.5 -4.30197e-05 78.2 0.199957C77 0.299957 75.9 0.299957 74.7 0.599957C73.2 0.499957 71.7 0.899957 70.2 0.999957C70 0.999957 69.7 1.19996 69.5 1.19996C67.8 1.29996 66.2 1.79996 64.6 2.19996C62 2.99996 59.4 3.69996 56.9 4.59996C54.8 5.29996 52.6 5.99996 50.6 6.99996C49.9 6.89996 49.5 7.19996 49.1 7.69996C47.5 8.09996 46.1 8.79996 44.7 9.49996C41.8 11 38.9 12.6 36.1 14.3C35.8 14.3 35.5 14.4 35.4 14.7C34.8 14.7 34.5 15 34.3 15.5C32.5 16.5 30.9 17.9 29.2 19.1C26.5 21.1 24 23.4 21.6 25.7C21.2 26.1 20.7 26.5 20.5 27.1C19.9 27.3 19.5 27.8 19.1 28.2C18.7 28.7 18.3 29.1 17.9 29.6C14.5 33.6 11.4 37.7 8.7 42.3C6.1 47 4.1 51.8 2.6 56.8C1.6 59.8 1 63 0.5 66.1C0 69 0 71.9 0 74.8C0 78.1 0.3 81.3 1 84.5C1.7 88 2.5 91.5 4 94.8C5.6 98.7 7.6 102.4 9.9 105.9C10.6 107 11.3 108.1 12.4 108.8C12.4 109.3 12.7 109.6 13 109.9C14.1 111.1 15.1 112.4 16.3 113.6C18.6 115.7 20.8 117.9 23.4 119.7C25.6 121.3 27.9 122.8 30.4 124.1C30.6 124.2 30.8 124.2 30.9 124.2C31.3 124.8 31.9 125.1 32.5 125.4C36 127.1 39.7 128.6 43.4 129.9C48 131.4 52.7 132.4 57.5 133C60.7 133.4 63.9 133.7 67.1 133.8C69.3 133.9 71.5 133.7 73.7 133.6C77.7 133.4 81.5 132.8 85.4 132.1C88.3 131.6 91.1 131 93.8 130.1C96.2 129.4 98.5 128.7 100.8 127.8C103.9 126.6 107.1 125.2 110.1 123.7C110.9 123.3 111.7 123.1 112.3 122.4C114.5 121.4 116.5 120.1 118.5 118.8C120.2 117.8 121.7 116.5 123.3 115.5C124.3 114.9 125.2 114.1 125.9 113.2C126.7 113.1 127.1 112.4 127.7 111.9C130.5 109.6 133 107.1 135.4 104.5C139.3 100.2 142.7 95.5 145.5 90.4C146.4 88.7 147.4 86.9 148.2 85.1C149.3 82.7 150.1 80.2 151 77.7C152.2 74.2999 152.9 70.7 153.4 67.1C153.7 64 153.7 60.9 153.7 57.9ZM150.7 44.6C150.7 44.5 150.7 44.5 150.7 44.6C150.7 44.5 150.7 44.5 150.7 44.6C150.7 44.5 150.7 44.5 150.7 44.6C150.7 44.5 150.7 44.5 150.7 44.6ZM11 104.5C10.9 104.5 10.9 104.5 11 104.5C10.9 104.5 10.9 104.5 11 104.5ZM117 116.9C111.6 120.4 105.9 123.3 99.9 125.6C96.9 126.7 93.7 127.3 90.8 128.7C89.9 129 89 129.3 88.2 129.5C85.8 130 83.5 130.5 81.1 130.8C78.8 131.1 76.5 131.3 74.2 131.5C73.9 131.5 73.7 131.5 73.4 131.6C70 132 66.5 131.8 63.1 131.6C59.1 131.4 55.1 130.7 51.2 129.9C49 129.4 46.8 128.8 44.7 128.2C44.3 128.1 44 128 43.6 127.8C41.4 127.1 39.3 126.2 37.1 125.3C35 124.4 32.8 123.3 30.8 122.1C30.1 121.7 29.5 121.3 28.8 120.8H28.7C28.6 120.7 28.4 120.6 28.3 120.5C27.9 120 27.4 119.5 26.8 119.1C21.3 115.4 16.8 110.8 12.7 105.7C12.5 105.5 12.2 105.3 12 105.1C11.9 105 11.8 104.9 11.7 104.9C11.7 104.5 11.5 104.3 11.2 104.1C11.2 104 11.2 103.9 11.2 103.8C10.9 102.9 10.4 102.2 9.9 101.4C2 87.6 0.7 73.1 4.9 57.9C6.7 51.3 9.9 45.3 13.6 39.6C13.7 39.4 13.8 39.1 13.9 38.9C14 38.8 14 38.6 14.1 38.5C14.2 38.3 14.3 38.1 14.4 37.9C14.5 37.8 14.5 37.7 14.5 37.6C14.7 37.5 14.8 37.3 14.9 37.1C15 37 15.2 36.9 15.3 36.8C17.2 34.9 18.7 32.6 20.6 30.6C26 24.8 32.1 19.8 38.8 15.6C39.2 15.3 39.7 15 40.2 14.8C50 9.29996 60.3 5.29996 71.5 3.79996C72.2 3.69996 73.3 3.79996 73.5 2.69996C73.9 2.69996 74.2 2.69996 74.6 2.69996C79.6 2.29996 84.5 1.89996 89.5 2.29996C90.9 2.39996 92.3 2.39996 93.7 2.39996C93.9 2.49996 94.1 2.69996 94.4 2.69996C96 2.79996 97.6 2.99996 99.1 3.39996C101.4 3.89996 103.8 4.49996 106.1 4.99996C106.8 5.19996 107.5 5.29996 108.3 5.39996C108.4 5.49996 108.5 5.49996 108.6 5.49996C109.8 6.09996 111 6.39996 112.2 6.89996C112.4 6.99996 112.6 6.89996 112.7 6.89996C113.2 7.39996 113.9 7.59996 114.6 7.59996C114.6 7.69996 114.6 7.79996 114.6 7.89996C115.4 9.09996 116.8 9.19996 117.9 9.69996C121.2 11.2 124.2 13.2 127.4 15C127.8 15.1 128.2 15.3 128.5 15.5C129.7 16.5 131 17.5 132.4 18.4C132.6 18.9 132.8 19.3 133.4 19.5C133.4 19.6 133.4 19.8 133.5 19.9C133.8 20.6 134.4 21.1 134.9 21.6C136.4 23 138 24.5 139.2 26.2C147.9 37.5 152.3 50.1 150.9 64.5C150 73.5 147.4 81.9 143 89.8C141.7 92.2 139.9 94.4 138.8 96.9C138.8 97 138.8 97.1 138.8 97.2C138.7 97.2999 138.6 97.4 138.5 97.5C138.3 97.6 138.2 97.8 138 97.9C137.2 98.4 136.7 99.2 136.2 100C134.2 102.4 132.2 104.8 129.9 107C125.9 110.4 121.7 113.9 117 116.9Z" fill="url(#paint0_linear_3_19346)"/>
<path fill-rule="evenodd" clip-rule="evenodd" d="M132.6 90.8999C135 88.5999 136.5 85.6 138.2 82.7999C139.2 81.1 140.1 79.3999 140.8 77.4999C142 74.3999 143.2 71.2999 143.8 67.9999C144.6 63.7999 145.1 59.5999 144.8 55.2999C144.6 52.1999 144 49.0999 143.2 45.9999C142.4 42.9999 141.1 40.0999 139.6 37.2999C139.4 36.5999 139.1 35.8999 138.5 35.4999C137 33.1999 135.3 30.9999 133.5 28.8999C132.2 27.3999 130.7 26.1999 129.3 24.7999C129.1 24.5999 128.8 24.4999 128.5 24.3999C127.7 23.3999 126.7 22.7999 125.7 21.9999C123.1 19.8999 120.1 18.4999 117.1 16.9999C114.1 15.4999 111 14.2999 107.8 13.3999C104.2 12.3999 100.6 11.5999 96.8998 11.1999C93.0998 10.7999 89.2998 10.4999 85.4998 10.5999C81.4998 10.6999 77.4998 10.7999 73.5998 11.6999C69.9998 12.4999 66.3998 12.9999 62.9998 14.0999C59.9998 14.9999 56.9998 15.9999 54.0998 17.0999C50.9998 18.2999 47.9998 19.8999 45.0998 21.3999C44.7998 21.5999 44.3998 21.6999 44.2998 22.0999C44.0998 22.0999 43.7998 22.0999 43.5998 22.2999C41.9998 23.1999 40.3998 23.9999 38.9998 25.1999C38.2998 25.2999 37.8998 25.6999 37.4998 26.2999C37.0998 26.4999 36.5998 26.5999 36.3998 27.0999C35.6998 27.4999 34.8998 27.6999 34.4998 28.4999C33.3998 29.0999 32.1998 29.5999 31.4998 30.7999C30.8998 31.0999 30.2998 31.4999 30.0998 32.1999C28.8998 32.7999 27.9998 33.7999 27.0998 34.7999C26.8998 34.8999 26.7998 34.9999 26.7998 35.1999C26.2998 35.5999 25.4998 35.8999 25.2998 36.6999C25.0998 36.6999 24.8998 36.8999 24.8998 37.0999C23.6998 37.7999 23.0998 39.0999 22.1998 40.0999C20.2998 42.1999 18.7998 44.5999 17.0998 46.8999C16.8998 47.1999 16.7998 47.5999 16.6998 47.8999C15.6998 48.9999 14.9998 50.3999 14.2998 51.7999C12.8998 54.6999 11.4998 57.6999 10.5998 60.7999C9.89983 62.9999 9.19983 65.2999 8.99983 67.7999C8.39983 68.7999 8.69983 69.9999 8.59983 71.0999C8.39983 71.2999 8.29983 71.5999 8.29983 71.8999C8.09983 73.3999 8.29983 74.8999 8.29983 76.2999C8.29983 79.7 9.19983 82.9999 9.89983 86.2999C10.0998 87.2999 10.5998 88.0999 10.8998 89.0999C11.7998 92.3999 13.3998 95.2999 15.0998 98.0999C17.2998 101.6 20.0998 104.5 23.0998 107.3C24.1998 108.3 25.3998 109.2 26.4998 110.1C26.7998 110.8 27.2998 111.1 27.9998 111.2C28.0998 111.5 28.3998 111.6 28.6998 111.6C30.4998 113.1 32.5998 114.1 34.6998 115.2C36.8998 116.4 39.2998 117.2 41.6998 118.1C45.7998 119.7 50.0998 120.6 54.3998 121.3C55.0998 121.4 55.6998 121.4 56.3998 121.5C58.9998 121.9 61.5998 122.2 64.2998 122.2C65.1998 122.2 66.0998 122.2 67.0998 122.2C70.0998 122.2 72.9998 122.2 75.8998 121.6C77.1998 121.4 78.4998 121.1 79.6998 121.1C80.8998 121 82.0998 120.8 83.2998 120.4C84.9998 120.4 86.5998 120.2 88.0998 119.3C89.5998 119.1 90.9998 118.4 92.4998 118.1C94.0998 117.7 95.4998 117.1 96.9998 116.5C97.5998 116.2 98.2998 116.2 98.7998 115.7C98.9998 115.7 99.1998 115.7 99.2998 115.7C101.7 114.6 104 113.5 106.4 112.4C106.6 112.3 106.8 112.1 106.9 111.9C107.5 111.6 108.2 111.4 108.7 111.1C111.9 109.2 115.1 107.3 118.2 105C119.3 104.2 120.4 103.4 121.4 102.5C122.5 101.6 123.4 100.5 124.5 99.6999C124.7 99.4999 124.8 99.2 125 98.8999C125.8 98.5999 126.3 97.9999 126.8 97.3999C128.5 95.7 130.1 93.7999 131.7 91.8999C132.2 91.7 132.5 91.3999 132.6 90.8999ZM93.6998 114.9C88.3998 116.5 83.1998 117.8 77.6998 118.7C68.9998 120 60.3998 119.9 51.6998 118.1C38.6998 115.4 27.3998 109.8 19.1998 98.9999C13.3998 91.3999 10.5998 82.6999 11.0998 72.9999C11.0998 72.3999 11.3998 71.5999 10.4998 71.3999V71.2999C10.6998 71 10.6998 70.6999 10.5998 70.3999C11.4998 69.3999 11.4998 68 11.6998 66.7999C12.9998 59.5 15.9998 52.8999 19.9998 46.7999C20.0998 46.5999 20.1998 46.3999 20.2998 46.0999C20.3998 45.8999 20.4998 45.6999 20.4998 45.4999C20.4998 45.3999 20.5998 45.2999 20.5998 45.1999C21.3998 43.6999 22.5998 42.4999 23.5998 41.1999C24.1998 40.4999 24.6998 39.7999 25.2998 39.0999C26.7998 37.8999 28.0998 36.4999 29.3998 34.9999C29.9998 34.5999 30.4998 34.1999 30.8998 33.5999C32.3998 32.3999 33.7998 31.1999 35.2998 29.9999C35.2998 29.9999 35.2998 29.8999 35.3998 29.8999C35.9998 29.7999 36.2998 29.3999 36.7998 29.0999C38.5998 27.8999 40.2998 26.6999 42.0998 25.3999C42.5998 24.9999 43.2998 24.9999 43.5998 24.3999C45.5998 23.6999 47.3998 22.4999 49.1998 21.3999C49.3998 21.2999 49.5998 21.2999 49.6998 21.1999C52.4998 19.7999 55.4998 18.6999 58.3998 17.5999C60.2998 16.8999 62.2998 16.2999 64.1998 15.7999C66.2998 15.1999 68.3998 14.7999 70.4998 14.2999C74.0998 13.4999 77.7998 13.0999 81.4998 12.7999C84.3998 12.5999 87.3998 12.5999 90.3998 12.6999C91.6998 12.7999 92.8998 12.7999 94.1998 12.8999C96.9998 13.1999 99.7998 13.5999 102.5 14.1999C104.8 14.6999 107.2 15.1999 109.4 16.0999C112.1 17.0999 114.8 17.8999 117.2 19.3999C117.5 19.5999 117.9 19.6999 118.2 19.7999C118.3 19.7999 118.4 19.8999 118.5 19.8999C118.8 20.2999 119.2 20.4999 119.6 20.5999C119.7 20.5999 119.7 20.6999 119.8 20.6999C119.9 20.6999 120 20.7999 120.1 20.7999C120.2 20.8999 120.3 20.9999 120.5 21.0999C122.7 22.1999 124.7 23.6999 126.6 25.1999C128.3 26.5999 130 27.8999 131.4 29.4999C134.1 32.5999 136.7 35.5999 138.4 39.3999C138.9 40.5999 139.6 41.6999 140 42.8999C140.6 44.7999 141.3 46.6999 141.8 48.6999C142.6 52.6999 143 56.5999 142.7 60.5999C142.3 65.0999 141.5 69.4999 139.8 73.6999C139 75.8999 138.1 77.9999 137 80.0999C136.5 81.0999 136.1 82.0999 135.4 82.9999C135.3 83.0999 135.3 83.2999 135.2 83.4999C134.9 83.5999 134.8 83.8999 134.8 84.1999C134.3 84.5999 133.8 84.9999 133.7 85.6999C133.4 85.7999 133.3 86.0999 133.3 86.3999C131.7 88.4999 130 90.6999 128.2 92.6999C125.4 95.7999 122.4 98.5999 119.2 101.2C117.2 102.9 115 104.4 112.8 105.8C110.8 107.1 108.8 108.5 106.6 109.4C106.3 109.5 106.1 109.7 106 110C106 110 105.9 110 105.9 110.1C105.7 110.1 105.5 110.2 105.3 110.3C102.5 111.7 99.6998 113 96.6998 114.1C96.3998 114.1 96.1998 114.2 95.8998 114.2C94.9998 114.5 94.2998 114.7 93.6998 114.9Z" fill="url(#paint1_linear_3_19346)"/>
<path fill-rule="evenodd" clip-rule="evenodd" d="M107.5 101.4C110.9 99.1 114.1 96.7 117.2 93.9C118.7 92.5 120.3 91.2 121.6 89.7C123.6 87.4 125.4 85 127.2 82.6C127.8 81.8 128.5 81.1 128.8 80.2C129.4 79.9 129.7 79.4 129.6 78.7C130.2 77.6 130.9 76.6 131.4 75.5C132.7 72.7 133.9 69.9 134.7 66.9C135.4 64.2 135.7 61.4 135.9 58.7C136 56.6 135.9 54.4 135.6 52.2C135.3 50 134.8 47.8 134.1 45.7C132.9 42.4 131.2 39.5 129.1 36.7C127.5 34.6 125.5 32.8 123.4 31.2C121.6 29.8 119.6 28.4 117.5 27.4C115.4 26.4 113.3 25.4 111 24.7C108.8 24 106.5 23.4 104.2 22.9C101.7 22.3 99.0999 22 96.4999 21.9C92.0999 21.8 87.5999 22 83.1999 22.5C82.7999 22.5 82.2999 22.5 81.9999 22.9C80.5999 22.9 79.1999 23 77.8999 23.7C76.1999 23.8 74.6999 24.3 73.0999 24.8C71.4999 25.3 69.9999 25.9 68.3999 26.3C67.3999 26.6 66.5999 26.9 65.6999 27.4C64.3999 27.6 63.1999 28.2 62.0999 28.7C61.4999 28.9 60.8999 29.1 60.5999 29.7C58.9999 30.3 57.4999 31.2 55.9999 32C51.2999 34.5 47.0999 37.6 42.9999 41C42.4999 41.4 42.0999 41.8 41.7999 42.3C40.6999 42.8 39.9999 43.7 39.0999 44.4C37.4999 45.9 35.8999 47.5 34.5999 49.3C33.5999 50.6 32.3999 51.8 31.6999 53.3C31.4999 53.5 31.2999 53.6 31.1999 53.8C30.2999 55.1 29.5999 56.6 28.7999 58C27.0999 61.1 25.5999 64.2 24.5999 67.6C22.9999 72.9 22.4999 78.3 23.1999 83.9C23.7999 88.2 25.2999 92.2 27.4999 96C29.3999 99.3 31.8999 102 34.6999 104.4C37.7999 107.1 41.4999 109.1 45.3999 110.6C47.9999 111.6 50.6999 112.6 53.4999 113C55.2999 113.3 56.9999 113.8 58.7999 113.9C63.7999 114.3 68.8999 114.4 73.8999 113.8C76.7999 113.4 79.5999 113 82.4999 112.4C85.7999 111.6 88.9999 110.6 92.1999 109.3C95.4999 108 98.7999 106.6 101.9 104.8C103.7 103.6 105.7 102.6 107.5 101.4ZM88.0999 107.7C78.7999 110.8 69.1999 112.3 59.2999 111.1C50.2999 110 41.9999 107.3 35.0999 101C28.8999 95.4 25.7999 88.5 25.4999 80.2C25.1999 72.6 27.5999 65.6 31.0999 59C31.8999 57.4 33.2999 56.1 33.6999 54.3C33.6999 54.2 33.5999 54.2 33.5999 54.1C34.1999 54.2 34.4999 53.8 34.7999 53.4C37.2999 49.8 40.3999 46.8 43.4999 43.8C43.7999 43.5 44.2999 43.1 44.2999 42.6C44.2999 42.6 44.2999 42.6 44.3999 42.6C45.7999 42 46.7999 40.9 47.9999 40C51.9999 36.7 56.5999 34.4 60.9999 31.7C61.2999 31.8 61.5999 31.7 61.7999 31.6C63.9999 30.5 66.3999 29.8 68.5999 28.6C68.7999 28.4 69.0999 28.3 69.2999 28.1C71.0999 27.5 72.7999 26.9 74.5999 26.4C74.8999 26.3 75.0999 26.2 75.3999 26C75.9999 26 76.5999 25.9 77.2999 25.8C78.1999 25.8 79.0999 25.6 79.8999 25.3C80.3999 25.2 80.8999 25.1 81.2999 25C81.2999 25.1 81.3999 25.1 81.4999 25.2C82.3999 25.6 83.1999 25.3 84.0999 25.2C90.0999 24.3 96.1999 24.4 102.2 25.3C107.9 26.1 113.4 28 118.3 31C125.3 35.4 130.4 41.4 132.4 49.5C134 56.3 133.3 63 131 69.5C127.9 78.2 122.5 85.4 115.7 91.7C107.6 99 98.3999 104.4 88.0999 107.7Z" fill="url(#paint2_linear_3_19346)"/>
<path fill-rule="evenodd" clip-rule="evenodd" d="M122.2 75.3999C123.5 72.6999 124.7 69.9999 125.3 67.0999C126.1 63.2999 126.5 59.3999 125.9 55.4999C125.2 51.4999 123.7 47.7999 121.3 44.4999C120 42.6999 118.3 41.1999 116.7 39.6999C115.9 38.9999 114.9 38.1999 113.7 37.9999C112.3 36.8999 110.7 36.0999 108.9 35.7999C108.9 35.7999 108.8 35.8999 108.8 35.9999L108.9 35.8999C107.4 34.8999 105.7 34.7999 104 34.3999C101.2 33.6999 98.4001 33.5999 95.6001 33.4999C93.5001 33.4999 91.4001 33.3999 89.4001 33.9999C88.7001 33.9999 88.1001 33.9999 87.5001 34.2999C87.4001 34.2999 87.3001 34.3999 87.3001 34.3999C86.3001 34.4999 85.3001 34.5999 84.2001 34.6999C83.8001 34.6999 83.5001 34.7999 83.2001 35.0999C83.0001 35.0999 82.7001 35.0999 82.5001 35.1999C79.3001 36.0999 76.1001 37.0999 73.1001 38.4999C72.6001 38.6999 72.1001 38.9999 71.6001 39.1999C69.3001 40.1999 67.1001 41.3999 65.0001 42.8999C64.8001 42.8999 64.6001 42.9999 64.6001 43.1999C64.1001 43.1999 63.8001 43.3999 63.4001 43.6999C60.2001 45.7999 57.3001 48.2999 54.6001 50.9999C53.5001 52.1999 52.4001 53.2999 51.4001 54.4999C50.1001 55.9999 48.9001 57.4999 47.8001 59.1999C46.3001 61.4999 44.8001 63.8999 43.8001 66.4999C42.8001 68.9999 41.8001 71.4999 41.4001 74.1999C41.2001 75.8999 41.0001 77.5999 40.8001 79.2999C40.6001 81.3999 40.9001 83.3999 41.2001 85.2999C41.9001 89.0999 43.5001 92.5999 45.9001 95.5999C46.9001 96.8999 47.9001 98.0999 49.4001 98.7999C50.3001 99.9999 51.4001 100.9 52.8001 101.4C53.6001 102.2 54.7001 102.7 55.8001 103.2C59.5001 104.8 63.4001 105.8 67.4001 106.1C72.4001 106.5 77.4001 106.2 82.3001 105.1C84.3001 104.6 86.4001 104.1 88.4001 103.6C88.9001 103.5 89.3001 103.3 89.7001 102.9C90.2001 102.7 90.8001 102.6 91.3001 102.4C93.3001 101.6 95.2001 100.6 97.2001 99.6999C101 97.8999 104.3 95.3999 107.6 92.9999C109.5 91.5999 111.3 89.8999 113 88.1999C114.9 86.2999 116.6 84.2999 118.2 82.1999C119.7 80.2999 121.1 77.8999 122.2 75.3999ZM97.1001 34.6999V34.5999V34.6999ZM89.0001 34.5999C89.0001 34.5999 88.9001 34.6999 88.8001 34.6999C88.8001 34.5999 88.8001 34.4999 88.9001 34.3999H89.0001C89.1001 34.4999 89.1001 34.5999 89.0001 34.5999ZM99.9001 95.2999C99.2001 95.6999 98.5001 96.1999 98.0001 96.8999C97.3001 96.7999 96.8001 97.2999 96.2001 97.4999C87.7001 101.5 79.0001 104.4 69.4001 103.7C63.1001 103.3 57.2001 101.9 52.2001 97.9999C51.8001 97.6999 51.3001 97.1999 50.8001 97.2999L50.7001 97.1999C50.4001 96.5999 49.9001 96.0999 49.4001 95.5999C45.2001 91.0999 43.3001 85.6999 43.5001 79.6999C43.8001 72.8999 46.1001 66.5999 50.0001 60.8999C51.9001 58.1999 54.2001 55.7999 56.1001 52.9999L56.0001 52.8999C56.7001 53.1999 57.1001 52.5999 57.5001 52.1999C60.0001 49.8999 62.6001 47.5999 65.4001 45.7999C65.8001 45.4999 66.4001 45.1999 66.4001 44.5999C66.5001 44.5999 66.5001 44.5999 66.6001 44.5999C66.9001 44.4999 67.3001 44.3999 67.6001 44.2999C71.7001 41.9999 75.9001 39.7999 80.5001 38.4999C82.0001 38.0999 83.5001 37.8999 84.9001 37.0999C85.2001 36.8999 85.5001 36.7999 85.8001 36.5999C86.4001 36.4999 86.9001 36.3999 87.5001 36.2999C88.0001 36.1999 88.4001 36.1999 88.8001 36.0999C88.9001 36.0999 89.1001 35.9999 89.2001 35.9999C90.0001 35.9999 90.9001 35.9999 91.6001 35.6999C91.7001 35.6999 91.8001 35.6999 92.0001 35.6999C92.9001 35.8999 93.7001 35.7999 94.6001 35.7999C99.6001 35.6999 104.6 36.2999 109.3 38.0999C109.7 38.2999 110.1 38.4999 110.5 38.3999C110.5 38.3999 110.5 38.3999 110.6 38.3999C110.7 39.6999 111.9 39.6999 112.7 40.0999C113 40.1999 113.3 40.1999 113.6 40.2999C113.7 40.2999 113.8 40.2999 113.9 40.2999H114C114 40.2999 113.9 40.2999 113.9 40.3999C114.2 41.4999 115.2 41.9999 116 42.5999C117.4 43.7999 118.8 44.9999 119.8 46.5999C124.9 53.8999 124.9 61.6999 122.2 69.7999C117.9 80.9999 110 89.0999 99.9001 95.2999Z" fill="url(#paint3_linear_3_19346)"/>
<path fill-rule="evenodd" clip-rule="evenodd" d="M112.4 65.7L112.5 65.6C112.6 64.9 112.6 64.2 112.1 63.6C112.1 62.7 111.9 61.9 111.3 61.1C111.3 60.8 111.3 60.5 111 60.3C110.8 59 110 58.2 109.1 57.4C109.1 57.2 109 57 108.8 56.9C108.4 56.1 107.8 55.5 106.9 55.2C106.5 54.7 106 54.2 105.4 54.1C105 53.6 104.5 53.3 103.9 53.3C103.7 53 103.4 52.9 103.1 52.9C101.5 51.9 99.7004 51.5 97.9004 51.4C97.7004 51.3 97.4004 51.2 97.2004 51.2C94.1004 50.9 91.1004 51.2 88.0004 51.7C85.5004 52.1 83.1004 53 80.8004 54C78.0004 55.2 75.3004 56.6 73.0004 58.5C70.5004 59.9 68.5004 61.8 66.7004 64C63.8004 67.1 61.7004 70.7 60.0004 74.5C59.4004 76 58.9004 77.6 58.7004 79.1C58.2004 82.7 58.4004 86.3 60.1004 89.8C61.1004 91.9 62.5004 93.6 64.4004 94.9C65.0004 95.7 65.8004 96.1 66.7004 96.4C66.9004 96.7 67.1004 96.8 67.4004 96.8C67.5004 96.9 67.6004 97.1 67.8004 97.1C70.3004 98.1 72.8004 98.6 75.5004 98.8C78.1004 99 80.8004 98.6 83.4004 98.2C84.2004 98.1 85.1004 97.9 85.8004 97.4C86.2004 97.3 86.5004 97.3 86.9004 97.2C88.7004 96.7 90.4004 95.9 92.0004 95.1C94.5004 93.9 96.8004 92.4 99.1004 90.8C100.6 89.7 102 88.5 103.2 87C105.8 84.8 107.6 82 109.4 79.1C109.6 78.7 109.8 78.2 110 77.7C110.4 77.3 110.6 76.8 110.7 76.2C110.8 76 111 75.8 111.1 75.6C111.9 73.2 112.6 70.7 112.8 68.1C112.9 67.2 112.9 66.3 112.6 65.4C112.5 65.6 112.5 65.6 112.4 65.7ZM108.2 76C106.6 79.8 104 82.9 101.2 85.8C100.8 86.2 100.4 86.5 100.3 87.1L100.2 87.2C99.5004 87.6 98.8004 88 98.2004 88.5C95.1004 91 91.8004 92.8 88.1004 94.2C86.7004 94.7 85.2004 94.9 84.0004 95.8C83.0004 95.5 81.9004 95.9 80.9004 96C76.1004 96.7 71.6004 96.2 67.4004 93.7C67.0004 93.5 66.6004 93.2 66.1004 93.2C66.1004 93.2 66.1004 93.2 66.0004 93.2C65.7004 92.8 65.5004 92.5 65.2004 92.2C61.9004 88.7 60.9004 84.5 61.6004 79.9C62.1004 76.6 63.5004 73.7 65.1004 70.8C66.2004 68.9 67.9004 67.5 68.6004 65.4C68.5004 65.4 68.5004 65.3 68.4004 65.3C68.5004 65.3 68.5004 65.3 68.6004 65.3C70.9004 64.1 72.6004 62.2 74.5004 60.6C74.6004 60.5 74.6004 60.4 74.6004 60.3C75.8004 60 76.8004 59.2 77.8004 58.5C83.4004 55.1 89.5004 53.6 96.0004 53.5C97.0004 53.5 98.0004 53.4 99.0004 53.6C99.2004 53.7 99.3004 53.7 99.5004 53.7C99.8004 53.7 100.1 53.8 100.4 53.9C100.5 53.9 100.7 54 100.8 54C101.2 54.1 101.5 54.2 101.9 54.3C102 54.6 102.3 54.7 102.5 54.8C103.2 54.9 103.9 55.1 104.5 55.6C104.6 55.7 104.8 55.8 104.9 55.9C105 55.9 105.1 56 105.1 56C105.4 56.3 105.8 56.6 106.2 56.8C106.3 56.8 106.3 56.9 106.4 56.9C106.5 56.9 106.5 56.9 106.6 57C106.6 57 106.6 57 106.7 57C106.5 57.7 107 58 107.4 58.3C107.6 58.4 107.8 58.6 108 58.8C108.1 58.9 108.2 59.1 108.3 59.2C108.4 59.3 108.5 59.4 108.5 59.5C108.6 59.6 108.7 59.8 108.8 59.9C108.9 60 108.9 60.1 108.9 60.1C109 60.3 109.1 60.5 109.2 60.7C109.2 60.8 109.3 60.8 109.3 60.9C109.4 61 109.4 61.2 109.5 61.3C109.5 61.4 109.6 61.5 109.6 61.6C109.6 61.6 109.6 61.7 109.7 61.7C109.7 61.8 109.8 61.8 109.8 61.9C109.9 62 109.9 62.2 110 62.3C110.1 62.6 110.2 62.9 110.3 63.1C110.3 63.2 110.3 63.2 110.4 63.3C110.4 63.4 110.4 63.4 110.5 63.5C110.5 63.7 110.5 63.9 110.5 64C111.1 66.2 111 68.5 110.5 70.7C110.2 71.9 110 73.1 109.7 74.3C109.4 74.5 109.3 74.8 109.4 75.2C109.4 75.2 109.4 75.2 109.4 75.3C109.4 75.3 109.4 75.3 109.3 75.2C108.5 75.2 108.3 75.6 108.2 76Z" fill="url(#paint4_linear_3_19346)"/>
<path fill-rule="evenodd" clip-rule="evenodd" d="M91.8 63.8C90.4 63.9 89 64 87.6 64.5C87.3 64.4 87 64.5 86.7 64.6C84.4 65.5 82.3 66.8 80.4 68.4C79.6 69.1 78.8 69.8 78.3 70.7C78.1 70.7 78 70.9 77.9 71.1C77.5 71.3 77.2 71.7 77.1 72.2C76.8 72.3 76.7 72.6 76.7 72.9C76.3 73.2 76.1 73.6 76 74C75.7 74.2 75.6 74.4 75.6 74.8C75 75.8 74.8 77 74.9 78.1C74.4 79.7 74.6 81.2 75.7 82.6C76.2 83.6 76.8 84.4 77.8 84.9C78.2 85.4 78.7 85.6 79.3 85.6C79.6 86 80 86 80.4 86C82.1 86.6 84.1 86.6 86 86L85.9 85.9L86 86C86.5 86 87.1 86 87.5 85.6C88.6 85.5 89.6 84.9 90.5 84.2C90.8 84.2 91.1 84.1 91.3 83.8C91.6 83.8 91.9 83.7 92 83.4C92.5 83.3 92.8 83 93.1 82.6C93.3 82.6 93.5 82.5 93.5 82.3C93.7 82.3 93.9 82.2 93.9 82L93.8 81.9L93.9 82C95 81.3 95.8 80.5 96.5 79.4C96.5 79.3 96.4 79.3 96.4 79.3L96.5 79.4C96.7 79.3 96.8 79.2 96.8 79C96.8 79 96.7 79 96.7 78.9L97 79C97.2 78.9 97.3 78.8 97.3 78.6H97.2C97.2 78.6 97.2 78.6 97.3 78.6C97.7 78.3 98 78 98.1 77.5C98.4 77.3 98.5 77.1 98.5 76.8C98.8 76.6 98.8 76.3 98.9 76C99.2 75.8 99.3 75.6 99.3 75.2C100.1 73.9 100.2 72.5 100.2 71.1C100.2 69.7 100 68.3 99 67.1C97.1 64.9 94.7 63.7 91.8 63.8ZM77.6 81.5C77.4 81.2 77.3 80.9 77.1 80.6C77.1 80.5 77.1 80.4 77 80.3C77.6 78.9 77.3 77.2 77.9 75.8C78 75.3 78 74.7 78.3 74.2C78.4 74.1 78.5 73.9 78.5 73.8C78.6 73.6 78.7 73.4 78.8 73.2C78.8 73.1 78.9 73.1 78.9 73C79 72.9 79.1 72.8 79.2 72.7C79.2 72.6 79.3 72.6 79.3 72.5C79.4 72.4 79.5 72.3 79.5 72.1C79.6 72.1 79.7 72.1 79.9 72C82.4 69.9 85 68 87.9 66.6C87.9 66.6 87.9 66.5 88 66.5C88.1 66.5 88.2 66.5 88.3 66.5C88.8 66.4 89.2 66.3 89.7 66.3C90.8 66.3 91.9 66.2 93 66.3C95.8 66.5 97.4 68.2 97.5 71C97.5 72.2 97.1 73.3 96.9 74.5C96.8 74.8 96.8 75.1 96.7 75.5C96.7 75.6 96.6 75.8 96.6 75.9C96.3 76.2 96.2 76.6 96.1 77C95.7 77.3 95.4 77.6 95.3 78C95.1 78.1 95 78.2 95 78.4C94.8 78.4 94.7 78.6 94.6 78.8C94.4 78.8 94.3 79 94.2 79.2C94 79.2 93.9 79.3 93.8 79.6C93.6 79.6 93.5 79.8 93.4 80C93.2 80 93.1 80.1 93 80.3C92.8 80.3 92.7 80.5 92.6 80.7C92.1 80.4 91.7 80.7 91.4 81.1C91.2 81.4 90.9 81.7 90.6 81.9C90.5 82 90.3 82 90.2 82.1C90 82.2 89.8 82.3 89.6 82.4C89.5 82.5 89.3 82.6 89.2 82.6C89.1 82.7 89 82.7 88.8 82.8C88.6 82.9 88.4 83 88.2 83.1C88.1 83.2 87.9 83.2 87.8 83.3C87.7 83.3 87.5 83.4 87.4 83.5C87.2 83.6 87.1 83.6 86.9 83.7C86.9 83.7 86.9 83.7 86.8 83.7C86.7 83.7 86.6 83.8 86.5 83.8C86.4 83.8 86.3 83.9 86.2 83.9C86.2 83.9 86.2 83.9 86.1 83.9C86.1 83.9 86 83.9 86 84C85.4 84 84.7 84.1 84.2 84.4C83.7 84.4 83.2 84.4 82.7 84.4C82.3 84.4 81.9 84.3 81.6 84.2C81.4 84.2 81.3 84.1 81.1 84.1C80.8 84.1 80.5 84 80.2 83.9C80.1 83.9 80 83.8 79.9 83.8C79.7 83.7 79.5 83.7 79.3 83.6C79.2 83.6 79.2 83.6 79.1 83.6C79.1 83.6 79.1 83.6 79.1 83.5C79 82.7 78.1 82.3 77.6 81.5Z" fill="url(#paint5_linear_3_19346)"/>
<defs>
<linearGradient id="paint0_linear_3_19346" x1="76.85" y1="-0.0828857" x2="76.85" y2="133.827" gradientUnits="userSpaceOnUse">
<stop stop-color="#5665AE"/>
<stop offset="1" stop-color="#615AA6"/>
</linearGradient>
<linearGradient id="paint1_linear_3_19346" x1="76.5494" y1="10.5806" x2="76.5494" y2="122.2" gradientUnits="userSpaceOnUse">
<stop stop-color="#5665AE"/>
<stop offset="1" stop-color="#615AA6"/>
</linearGradient>
<linearGradient id="paint2_linear_3_19346" x1="79.4142" y1="21.875" x2="79.4142" y2="114.225" gradientUnits="userSpaceOnUse">
<stop stop-color="#5665AE"/>
<stop offset="1" stop-color="#615AA6"/>
</linearGradient>
<linearGradient id="paint3_linear_3_19346" x1="83.4622" y1="33.4937" x2="83.4622" y2="106.269" gradientUnits="userSpaceOnUse">
<stop stop-color="#5665AE"/>
<stop offset="1" stop-color="#615AA6"/>
</linearGradient>
<linearGradient id="paint4_linear_3_19346" x1="85.6606" y1="51.0803" x2="85.6606" y2="98.8532" gradientUnits="userSpaceOnUse">
<stop stop-color="#5665AE"/>
<stop offset="1" stop-color="#615AA6"/>
</linearGradient>
<linearGradient id="paint5_linear_3_19346" x1="87.4203" y1="63.7942" x2="87.4203" y2="86.45" gradientUnits="userSpaceOnUse">
<stop stop-color="#5665AE"/>
<stop offset="1" stop-color="#615AA6"/>
</linearGradient>
</defs>
</svg>
