<svg width="214" height="215" viewBox="0 0 214 215" fill="none" xmlns="http://www.w3.org/2000/svg">
<path d="M84.4772 9.33822L83.7979 9.04114L19.9413 158.679L20.6206 158.976L84.4772 9.33822Z" fill="#3F3F3F"/>
<path d="M106.268 18.8675L105.589 18.5704L41.7323 168.208L42.4116 168.505L106.268 18.8675Z" fill="#3F3F3F"/>
<path d="M128.053 28.3949L127.374 28.0978L63.5175 177.736L64.1968 178.033L128.053 28.3949Z" fill="#3F3F3F"/>
<path d="M149.846 37.9242L149.167 37.6271L85.3104 187.265L85.9897 187.562L149.846 37.9242Z" fill="#3F3F3F"/>
<path d="M171.639 47.4574L170.96 47.1603L107.103 196.798L107.783 197.095L171.639 47.4574Z" fill="#3F3F3F"/>
<path d="M193.434 56.9867L192.755 56.6896L128.898 206.328L129.578 206.625L193.434 56.9867Z" fill="#3F3F3F"/>
<path d="M204.269 84.663L56.4521 20.0197L56.1587 20.7073L203.975 85.3507L204.269 84.663Z" fill="#3F3F3F"/>
<path d="M194.855 106.724L47.0381 42.0802L46.7446 42.7679L194.561 107.411L194.855 106.724Z" fill="#3F3F3F"/>
<path d="M185.445 128.776L37.6279 64.1329L37.3345 64.8206L185.151 129.464L185.445 128.776Z" fill="#3F3F3F"/>
<path d="M176.031 150.839L28.2139 86.1954L27.9204 86.8831L175.737 151.526L176.031 150.839Z" fill="#3F3F3F"/>
<path d="M166.615 172.899L18.7979 108.256L18.5044 108.944L166.321 173.587L166.615 172.899Z" fill="#3F3F3F"/>
<path d="M157.2 194.964L9.38379 130.32L9.09033 131.008L156.907 195.651L157.2 194.964Z" fill="#3F3F3F"/>
</svg>
