<svg width="140" height="138" viewBox="0 0 140 138" fill="none" xmlns="http://www.w3.org/2000/svg">
<path d="M70.2959 0L78.5234 43.9343L111.267 13.1778L91.8357 53.5085L136.588 47.6778L96.9205 69L136.588 90.3222L91.8357 84.4915L111.267 124.822L78.5234 94.0657L70.2959 138L62.0685 94.0657L29.3249 124.822L48.7561 84.4915L4.00336 90.3222L43.6713 69L4.00336 47.6778L48.7561 53.5085L29.3249 13.1778L62.0685 43.9343L70.2959 0Z" fill="#5665AE"/>
<path d="M50.0018 74V71.69H54.0498C55.1058 71.69 56.0298 71.4627 56.8218 71.008C57.6285 70.5533 58.2518 69.9227 58.6918 69.116C59.1465 68.2947 59.3738 67.3487 59.3738 66.278C59.3738 65.222 59.1465 64.2907 58.6918 63.484C58.2371 62.6773 57.6065 62.0467 56.7998 61.592C56.0078 61.1373 55.0911 60.91 54.0498 60.91H50.0018V58.6H54.1158C55.2305 58.6 56.2645 58.798 57.2178 59.194C58.1711 59.5753 58.9998 60.118 59.7038 60.822C60.4225 61.5113 60.9798 62.3253 61.3758 63.264C61.7718 64.188 61.9698 65.2 61.9698 66.3C61.9698 67.3853 61.7718 68.3973 61.3758 69.336C60.9798 70.2747 60.4298 71.096 59.7258 71.8C59.0218 72.4893 58.1931 73.032 57.2398 73.428C56.2865 73.8093 55.2598 74 54.1598 74H50.0018ZM48.2638 74V58.6H50.7938V74H48.2638ZM64.659 74V63.44H67.079V74H64.659ZM67.079 68.126L66.243 67.708C66.243 66.3733 66.5363 65.2953 67.123 64.474C67.7243 63.638 68.6263 63.22 69.829 63.22C70.357 63.22 70.8336 63.3153 71.259 63.506C71.6843 63.6967 72.0803 64.0047 72.447 64.43L70.863 66.058C70.6723 65.8527 70.4596 65.706 70.225 65.618C69.9903 65.53 69.719 65.486 69.411 65.486C68.7363 65.486 68.179 65.6987 67.739 66.124C67.299 66.5493 67.079 67.2167 67.079 68.126ZM78.3919 74.22C77.4973 74.22 76.6979 74.022 75.9939 73.626C75.3046 73.23 74.7619 72.6873 74.3659 71.998C73.9846 71.294 73.7939 70.4873 73.7939 69.578V63.44H76.2139V69.468C76.2139 69.9813 76.2946 70.4213 76.4559 70.788C76.6319 71.14 76.8813 71.4113 77.2039 71.602C77.5413 71.7927 77.9373 71.888 78.3919 71.888C79.0959 71.888 79.6313 71.6827 79.9979 71.272C80.3793 70.8467 80.5699 70.2453 80.5699 69.468V63.44H82.9899V69.578C82.9899 70.502 82.7919 71.316 82.3959 72.02C82.0146 72.7093 81.4793 73.252 80.7899 73.648C80.1006 74.0293 79.3013 74.22 78.3919 74.22ZM90.2632 78.62C89.1485 78.62 88.1732 78.4147 87.3372 78.004C86.5012 77.608 85.8265 77.0433 85.3132 76.31L86.8972 74.726C87.3225 75.254 87.8065 75.65 88.3492 75.914C88.8918 76.178 89.5445 76.31 90.3072 76.31C91.2605 76.31 92.0158 76.0607 92.5732 75.562C93.1305 75.078 93.4092 74.4107 93.4092 73.56V70.964L93.8272 68.632L93.4092 66.278V63.44H95.8292V73.56C95.8292 74.572 95.5945 75.452 95.1252 76.2C94.6558 76.9627 94.0032 77.5567 93.1672 77.982C92.3312 78.4073 91.3632 78.62 90.2632 78.62ZM90.1532 73.78C89.2145 73.78 88.3638 73.5527 87.6012 73.098C86.8532 72.6287 86.2592 71.9907 85.8192 71.184C85.3938 70.3773 85.1812 69.4753 85.1812 68.478C85.1812 67.4807 85.3938 66.586 85.8192 65.794C86.2592 65.002 86.8532 64.3787 87.6012 63.924C88.3638 63.4547 89.2145 63.22 90.1532 63.22C90.9892 63.22 91.7225 63.3887 92.3532 63.726C92.9838 64.0633 93.4752 64.5327 93.8272 65.134C94.1792 65.7207 94.3552 66.41 94.3552 67.202V69.798C94.3552 70.5753 94.1718 71.2647 93.8052 71.866C93.4532 72.4673 92.9618 72.9367 92.3312 73.274C91.7005 73.6113 90.9745 73.78 90.1532 73.78ZM90.6372 71.492C91.2238 71.492 91.7372 71.3673 92.1772 71.118C92.6172 70.8687 92.9545 70.524 93.1892 70.084C93.4385 69.6293 93.5632 69.1013 93.5632 68.5C93.5632 67.8987 93.4385 67.378 93.1892 66.938C92.9545 66.4833 92.6172 66.1313 92.1772 65.882C91.7372 65.6327 91.2238 65.508 90.6372 65.508C90.0505 65.508 89.5298 65.6327 89.0752 65.882C88.6352 66.1313 88.2905 66.4833 88.0412 66.938C87.7918 67.378 87.6672 67.8987 87.6672 68.5C87.6672 69.0867 87.7918 69.6073 88.0412 70.062C88.2905 70.5167 88.6352 70.8687 89.0752 71.118C89.5298 71.3673 90.0505 71.492 90.6372 71.492Z" fill="white"/>
</svg>
