<svg width="254" height="170" viewBox="0 0 254 170" fill="none" xmlns="http://www.w3.org/2000/svg">
<g clip-path="url(#clip0_3_16752)">
<path d="M239.667 55.0137C193.801 39.6424 -8.75476 41.0895 6.96189 92.194C11.0124 94.4043 15.3174 96.3659 19.5253 98.0245C34.9904 57.1409 187.433 46.3625 239.667 55.0137Z" fill="white"/>
<path d="M64.4685 88.6278L82.1929 109.513C70.3374 112.144 43.8146 108.116 19.3738 98.0732C15.2689 96.2145 11.0125 94.4044 6.96191 92.1941C20.4345 119.622 45.9268 134.508 93.2701 135.203L78.7082 154.409C78.7082 154.409 132.19 128.907 135.563 124.316C119.993 117.445 64.4685 88.6278 64.4685 88.6278Z" fill="white"/>
</g>
<defs>
<clipPath id="clip0_3_16752">
<rect width="232.946" height="102.471" fill="white" transform="translate(0.452148 71.8906) rotate(-17.7768)"/>
</clipPath>
</defs>
</svg>
