<svg width="1190" height="816" viewBox="0 0 1190 816" fill="none" xmlns="http://www.w3.org/2000/svg">
<g clip-path="url(#clip0_3_14521)">
<g opacity="0.7">
<path d="M499.084 657.61C400.828 538.689 428.438 107.485 685.111 104.107C906.108 101.212 1045.81 226.853 1122.35 315.386C1188.16 391.432 1258.84 528.494 1258.84 528.494" stroke="url(#paint0_linear_3_14521)" stroke-width="1.5" stroke-miterlimit="10" stroke-linecap="round"/>
<path d="M472.661 647.28C384.196 523.902 418.845 111.415 670.12 107.497C886.047 104.115 1025.35 225.326 1102.67 313.874C1171.67 392.34 1243.81 530.758 1246.01 542.756" stroke="url(#paint1_linear_3_14521)" stroke-width="1.4583" stroke-miterlimit="10" stroke-linecap="round"/>
<path d="M446.33 637.077C367.545 509.224 409.344 115.471 655.112 110.996C866.059 107.255 1004.71 224.218 1083.1 312.38C1155.05 393.339 1228.87 533.149 1233.19 556.91" stroke="url(#paint2_linear_3_14521)" stroke-width="1.4167" stroke-miterlimit="10" stroke-linecap="round"/>
<path d="M419.89 626.857C351.022 494.455 399.861 119.419 640.105 114.495C845.964 110.377 984.102 222.891 1063.51 310.994C1138.54 394.356 1213.82 535.522 1220.34 571.281" stroke="url(#paint3_linear_3_14521)" stroke-width="1.375" stroke-miterlimit="10" stroke-linecap="round"/>
<path d="M393.576 616.545C334.372 479.777 390.359 123.475 625.206 118.012C825.994 113.407 963.714 221.6 1043.92 309.608C1122.03 395.373 1198.88 537.913 1207.61 585.561" stroke="url(#paint4_linear_3_14521)" stroke-width="1.3333" stroke-miterlimit="10" stroke-linecap="round"/>
<path d="M367.136 606.324C317.74 464.99 380.876 127.422 610.197 121.511C806.006 116.547 943.234 220.182 1024.33 308.223C1105.63 396.408 1183.94 540.304 1194.76 599.932" stroke="url(#paint5_linear_3_14521)" stroke-width="1.2917" stroke-miterlimit="10" stroke-linecap="round"/>
<path d="M340.695 596.104C301.09 450.312 371.265 131.461 595.08 124.993C786.037 119.577 922.755 218.764 1004.65 306.711C1089.03 397.298 1168.91 542.568 1181.94 614.085" stroke="url(#paint6_linear_3_14521)" stroke-width="1.25" stroke-miterlimit="10" stroke-linecap="round"/>
<path d="M314.382 585.792C284.566 435.543 361.891 135.426 580.199 128.401C765.959 122.59 902.367 217.473 985.081 305.216C1072.65 398.224 1153.97 544.959 1169.1 628.347" stroke="url(#paint7_linear_3_14521)" stroke-width="1.2083" stroke-miterlimit="10" stroke-linecap="round"/>
<path d="M287.942 575.571C267.916 420.865 352.298 139.356 565.191 131.9C745.989 125.621 881.888 216.055 965.383 303.813C1056.03 399.223 1138.81 547.314 1156.25 642.719" stroke="url(#paint8_linear_3_14521)" stroke-width="1.1667" stroke-miterlimit="10" stroke-linecap="round"/>
<path d="M261.611 565.368C251.284 406.078 342.906 143.43 550.183 135.399C726.002 128.76 861.517 214.655 945.793 302.427C1039.65 400.149 1123.87 549.705 1143.42 656.981" stroke="url(#paint9_linear_3_14521)" stroke-width="1.125" stroke-miterlimit="10" stroke-linecap="round"/>
<path d="M235.188 555.039C234.743 391.418 333.423 147.377 535.175 138.899C705.924 131.773 841.038 213.237 926.113 300.915C1023.18 400.948 1108.84 551.969 1130.58 671.243" stroke="url(#paint10_linear_3_14521)" stroke-width="1.0833" stroke-miterlimit="10" stroke-linecap="round"/>
<path d="M208.857 544.836C218.11 376.631 323.939 151.325 520.294 142.306C685.954 134.804 820.685 211.728 906.632 299.547C1006.89 402 1093.99 554.486 1117.85 685.523" stroke="url(#paint11_linear_3_14521)" stroke-width="1.0417" stroke-miterlimit="10" stroke-linecap="round"/>
<path d="M182.417 534.615C201.46 361.953 314.328 155.363 505.285 145.806C665.984 137.834 800.314 210.327 886.952 298.035C990.413 402.799 1078.85 556.733 1104.91 699.768" stroke="url(#paint12_linear_3_14521)" stroke-miterlimit="10" stroke-linecap="round"/>
<path d="M156.103 524.303C184.937 347.184 304.954 159.328 490.295 149.196C646.015 140.865 779.961 208.818 867.38 296.54C974.049 403.616 1063.93 559.014 1092.2 713.938" stroke="url(#paint13_linear_3_14521)" stroke-width="0.9583" stroke-miterlimit="10" stroke-linecap="round"/>
<path d="M129.663 514.083C168.305 332.397 295.361 163.258 475.287 152.695C625.919 143.987 759.482 207.4 847.682 295.137C957.558 404.524 1048.88 561.388 1079.24 728.292" stroke="url(#paint14_linear_3_14521)" stroke-width="0.9167" stroke-miterlimit="10" stroke-linecap="round"/>
<path d="M103.223 503.862C151.655 317.719 285.86 167.314 460.279 156.194C605.95 147.017 739.112 206 828.093 293.752C941.304 405.358 1033.94 563.778 1066.51 742.572" stroke="url(#paint15_linear_3_14521)" stroke-width="0.875" stroke-miterlimit="10" stroke-linecap="round"/>
<path d="M76.909 493.55C135.004 303.041 276.376 171.262 445.271 159.694C585.853 150.139 718.886 204.399 808.395 292.348C924.957 406.066 1018.87 566.261 1053.55 756.926" stroke="url(#paint16_linear_3_14521)" stroke-width="0.8333" stroke-miterlimit="10" stroke-linecap="round"/>
<path d="M50.4692 483.33C118.481 288.272 266.876 175.318 430.263 163.193C565.884 153.17 698.406 202.981 788.823 290.854C908.575 406.991 1003.95 568.542 1040.82 771.206" stroke="url(#paint17_linear_3_14521)" stroke-width="0.7917" stroke-miterlimit="10" stroke-linecap="round"/>
<path d="M24.138 473.127C166.088 108.6 567.756 95.3749 769.234 289.468C892.194 407.917 988.899 570.915 1027.99 785.468" stroke="url(#paint18_linear_3_14521)" stroke-width="0.75" stroke-miterlimit="10" stroke-linecap="round"/>
</g>
</g>
<defs>
<linearGradient id="paint0_linear_3_14521" x1="907.408" y1="131.722" x2="813.852" y2="708.653" gradientUnits="userSpaceOnUse">
<stop stop-color="#5665AE"/>
<stop offset="1" stop-color="#615AA6"/>
</linearGradient>
<linearGradient id="paint1_linear_3_14521" x1="893.257" y1="135.107" x2="801.554" y2="700.613" gradientUnits="userSpaceOnUse">
<stop stop-color="#5665AE"/>
<stop offset="1" stop-color="#615AA6"/>
</linearGradient>
<linearGradient id="paint2_linear_3_14521" x1="878.914" y1="138.621" x2="789.071" y2="692.656" gradientUnits="userSpaceOnUse">
<stop stop-color="#5665AE"/>
<stop offset="1" stop-color="#615AA6"/>
</linearGradient>
<linearGradient id="paint3_linear_3_14521" x1="864.361" y1="142.077" x2="776.375" y2="684.665" gradientUnits="userSpaceOnUse">
<stop stop-color="#5665AE"/>
<stop offset="1" stop-color="#615AA6"/>
</linearGradient>
<linearGradient id="paint4_linear_3_14521" x1="849.603" y1="145.45" x2="763.483" y2="676.529" gradientUnits="userSpaceOnUse">
<stop stop-color="#5665AE"/>
<stop offset="1" stop-color="#615AA6"/>
</linearGradient>
<linearGradient id="paint5_linear_3_14521" x1="834.47" y1="148.781" x2="750.201" y2="668.442" gradientUnits="userSpaceOnUse">
<stop stop-color="#5665AE"/>
<stop offset="1" stop-color="#615AA6"/>
</linearGradient>
<linearGradient id="paint6_linear_3_14521" x1="818.985" y1="151.999" x2="736.559" y2="660.297" gradientUnits="userSpaceOnUse">
<stop stop-color="#5665AE"/>
<stop offset="1" stop-color="#615AA6"/>
</linearGradient>
<linearGradient id="paint7_linear_3_14521" x1="803.181" y1="155.096" x2="722.604" y2="651.989" gradientUnits="userSpaceOnUse">
<stop stop-color="#5665AE"/>
<stop offset="1" stop-color="#615AA6"/>
</linearGradient>
<linearGradient id="paint8_linear_3_14521" x1="786.851" y1="158.142" x2="708.112" y2="643.706" gradientUnits="userSpaceOnUse">
<stop stop-color="#5665AE"/>
<stop offset="1" stop-color="#615AA6"/>
</linearGradient>
<linearGradient id="paint9_linear_3_14521" x1="770.042" y1="161.131" x2="693.142" y2="635.346" gradientUnits="userSpaceOnUse">
<stop stop-color="#5665AE"/>
<stop offset="1" stop-color="#615AA6"/>
</linearGradient>
<linearGradient id="paint10_linear_3_14521" x1="752.652" y1="163.96" x2="677.601" y2="626.781" gradientUnits="userSpaceOnUse">
<stop stop-color="#5665AE"/>
<stop offset="1" stop-color="#615AA6"/>
</linearGradient>
<linearGradient id="paint11_linear_3_14521" x1="734.722" y1="166.607" x2="661.486" y2="618.234" gradientUnits="userSpaceOnUse">
<stop stop-color="#5665AE"/>
<stop offset="1" stop-color="#615AA6"/>
</linearGradient>
<linearGradient id="paint12_linear_3_14521" x1="715.978" y1="169.157" x2="642.103" y2="624.719" gradientUnits="userSpaceOnUse">
<stop stop-color="#5665AE"/>
<stop offset="1" stop-color="#615AA6"/>
</linearGradient>
<linearGradient id="paint13_linear_3_14521" x1="696.734" y1="171.527" x2="621.163" y2="637.554" gradientUnits="userSpaceOnUse">
<stop stop-color="#5665AE"/>
<stop offset="1" stop-color="#615AA6"/>
</linearGradient>
<linearGradient id="paint14_linear_3_14521" x1="676.985" y1="173.888" x2="599.693" y2="650.529" gradientUnits="userSpaceOnUse">
<stop stop-color="#5665AE"/>
<stop offset="1" stop-color="#615AA6"/>
</linearGradient>
<linearGradient id="paint15_linear_3_14521" x1="657.36" y1="176.179" x2="578.35" y2="663.411" gradientUnits="userSpaceOnUse">
<stop stop-color="#5665AE"/>
<stop offset="1" stop-color="#615AA6"/>
</linearGradient>
<linearGradient id="paint16_linear_3_14521" x1="637.685" y1="178.424" x2="556.934" y2="676.394" gradientUnits="userSpaceOnUse">
<stop stop-color="#5665AE"/>
<stop offset="1" stop-color="#615AA6"/>
</linearGradient>
<linearGradient id="paint17_linear_3_14521" x1="618.078" y1="180.604" x2="535.591" y2="689.276" gradientUnits="userSpaceOnUse">
<stop stop-color="#5665AE"/>
<stop offset="1" stop-color="#615AA6"/>
</linearGradient>
<linearGradient id="paint18_linear_3_14521" x1="598.477" y1="182.746" x2="514.248" y2="702.159" gradientUnits="userSpaceOnUse">
<stop stop-color="#5665AE"/>
<stop offset="1" stop-color="#615AA6"/>
</linearGradient>
<clipPath id="clip0_3_14521">
<rect width="1228.86" height="627.305" fill="white" transform="translate(100.413) rotate(9.21096)"/>
</clipPath>
</defs>
</svg>
