<svg width="207" height="215" viewBox="0 0 207 215" fill="none" xmlns="http://www.w3.org/2000/svg">
<path d="M77.4777 9.3381L76.7983 9.04102L12.9418 158.679L13.6211 158.976L77.4777 9.3381Z" fill="#3F3F3F"/>
<path d="M99.2687 18.8674L98.5894 18.5703L34.7328 168.208L35.4121 168.505L99.2687 18.8674Z" fill="#3F3F3F"/>
<path d="M121.054 28.3947L120.375 28.0977L56.5179 177.736L57.1973 178.033L121.054 28.3947Z" fill="#3F3F3F"/>
<path d="M142.847 37.924L142.167 37.627L78.3109 187.265L78.9902 187.562L142.847 37.924Z" fill="#3F3F3F"/>
<path d="M164.64 47.4572L163.96 47.1602L100.104 196.798L100.783 197.095L164.64 47.4572Z" fill="#3F3F3F"/>
<path d="M186.435 56.9865L185.755 56.6895L121.899 206.327L122.578 206.624L186.435 56.9865Z" fill="#3F3F3F"/>
<path d="M197.269 84.6629L49.4526 20.0195L49.1592 20.7072L196.976 85.3506L197.269 84.6629Z" fill="#3F3F3F"/>
<path d="M187.855 106.723L40.0386 42.0801L39.7451 42.7678L187.562 107.411L187.855 106.723Z" fill="#3F3F3F"/>
<path d="M178.445 128.776L30.6284 64.1328L30.3349 64.8205L178.152 129.464L178.445 128.776Z" fill="#3F3F3F"/>
<path d="M169.031 150.839L21.2144 86.1953L20.9209 86.883L168.738 151.526L169.031 150.839Z" fill="#3F3F3F"/>
<path d="M159.615 172.899L11.7983 108.256L11.5049 108.944L159.322 173.587L159.615 172.899Z" fill="#3F3F3F"/>
<path d="M150.201 194.964L2.38428 130.32L2.09082 131.008L149.908 195.651L150.201 194.964Z" fill="#3F3F3F"/>
</svg>
