<svg width="189" height="151" viewBox="0 0 189 151" fill="none" xmlns="http://www.w3.org/2000/svg">
<path d="M86.1303 61.3222C82.8389 54.2441 80.7878 46.2818 82.4194 38.6698C84.0511 31.0578 89.841 24.0084 97.4033 22.6398C99.4225 22.2472 101.64 22.3747 103.436 23.4642C106.552 25.431 107.558 29.6191 107.442 33.4499C107.326 37.2806 106.391 41.0336 107.542 44.5673C109.539 51.3552 117.316 54.684 121.411 60.2518C125.309 65.2995 126 72.7984 123.06 78.5321C120.121 84.2658 113.959 88.2732 107.676 88.3437C100.813 88.4425 94.3424 84.4027 90.5239 78.5273C86.7715 72.8252 85.2224 65.6623 85.3762 58.8284" fill="white"/>
<path d="M143.92 45.8555C142.946 50.0222 141.021 53.7645 139.981 57.758C136.939 68.9107 141.488 81.8712 151.524 87.5028C161.559 93.1344 175.667 89.7993 181.257 79.6407C182.127 78.3037 182.693 76.6872 182.679 75.099C182.663 70.9215 177.949 68.3852 173.831 67.4088C169.778 66.6057 165.171 66.418 162.133 63.6235C157.643 59.6051 158.655 52.4352 158.901 46.3618C159.227 39.4608 158.087 32.3368 154.954 26.1926C151.651 20.1155 146.011 15.1526 139.199 13.8365C136.203 13.2174 132.956 13.4932 130.409 15.0884C127.863 16.6836 126.149 19.9448 126.864 22.8524C129.894 34.4156 147.789 28.6011 143.92 45.8555Z" fill="#312679"/>
<path d="M30.0144 131.318C34.914 135.376 42.3442 133.66 48.1107 131.202C53.8771 128.744 59.8277 125.218 66.098 126.148C71.7215 126.934 76.7534 131.338 82.5216 131.469C88.8705 131.572 94.7533 125.283 94.2871 118.891C92.942 100.89 62.0441 103.63 50.0198 104.157C39.2625 104.386 14.061 118.442 30.0144 131.318Z" fill="#322679"/>
</svg>
