<svg width="70" height="94" viewBox="0 0 70 94" fill="none" xmlns="http://www.w3.org/2000/svg">
<path d="M14.0247 75.6372C9.45788 71.8481 5.03374 67.6217 2.46488 62.2295C0.609601 58.2946 -0.10397 53.0481 2.75031 49.6962C5.46188 46.49 10.5996 46.49 14.3102 48.5303C18.0207 50.5706 20.5896 54.214 22.873 57.7117C30.5796 69.662 37.0017 84.9644 48.1334 94C36.1454 88.4621 24.5856 84.2357 14.0247 75.6372Z" fill="#322679"/>
<path d="M48.8478 54.0683C42.7111 39.2031 44.1383 21.4233 52.5584 7.72408C53.9856 5.24656 55.6981 2.91478 57.9816 1.45741C60.265 5.03452e-05 63.4047 -0.582895 65.8308 0.728732C68.1143 1.89462 69.5414 4.37214 69.8268 6.9954C70.255 9.61866 69.6841 12.2419 68.9705 14.7194C66.6871 22.4435 62.263 29.1473 58.9806 36.4342C56.5544 41.5349 55.4127 46.49 54.5564 52.028C53.7001 56.5458 52.273 62.3752 48.8478 54.0683Z" fill="white"/>
<path d="M14.7382 15.4481C14.5954 11.3675 15.1663 7.14114 17.5924 4.08067C20.0186 0.874472 24.5854 -0.728629 28.0106 1.16594C32.4347 3.49773 33.0056 9.61866 33.0056 14.7194C33.0056 28.4187 30.5794 45.1783 37.0016 57.5659C26.5834 45.0326 15.4517 32.9365 14.7382 15.4481Z" fill="#322679"/>
</svg>
