<svg width="331" height="234" viewBox="0 0 331 234" fill="none" xmlns="http://www.w3.org/2000/svg">
<path d="M9.69047 50.1338C14.4424 45.9177 19.6333 42.5476 25.6366 40.3848C26.2531 40.1376 26.8243 39.8553 27.4407 39.608C28.5939 39.1242 29.6799 38.4438 30.8313 38.2482C30.9455 38.1917 31.0706 38.2161 31.1848 38.1596C33.716 37.6555 35.9553 36.4913 38.296 35.478C40.0203 34.7119 41.721 34.0724 43.6558 34.2653C43.9858 34.3033 44.352 34.0074 44.7056 33.9188C45.6285 33.8361 46.439 33.5217 47.2386 33.1265C47.3528 33.0701 47.4326 33.0594 47.5015 32.9679C48.7017 32.231 49.8658 31.828 51.3689 31.832C52.747 31.8116 54.4097 31.7942 55.6571 30.8042C57.0587 30.6573 58.4041 30.3946 59.6842 29.647C60.2897 29.3189 61.0531 29.2576 61.7711 29.1613C62.0105 29.1292 62.2153 29.1428 62.4093 29.0757C63.9252 28.8723 65.4175 28.7955 66.8771 28.4763C69.9214 27.8622 72.9658 27.2481 76.0337 26.5075C76.6266 26.3868 77.165 25.8621 77.7253 25.499C79.4933 26.866 81.3572 25.6287 83.145 25.6357C83.203 25.4633 83.2157 25.256 83.319 25.1187C83.571 24.8792 83.8339 24.7205 84.0968 24.5619L84.2782 24.7021C84.0715 24.9766 83.8195 25.2161 83.6473 25.4449C86.3018 25.2533 88.9219 25.1074 91.5765 24.9158C91.8611 24.9188 92.1458 24.9217 92.4305 24.9246C94.483 24.4847 96.5011 24.0906 98.6045 24.6311C102.16 24.1952 105.732 24.7854 109.333 24.3846C110.256 24.3019 111.179 24.2192 112.099 24.7129C112.621 24.9719 113.429 24.9456 114.012 24.7442C114.982 24.4084 115.812 24.5437 116.744 24.83C117.426 25.0676 118.256 25.203 118.974 25.1067C120.604 24.8469 122.162 25.2549 123.685 25.7087C124.322 25.9112 124.982 25.9872 125.642 26.0632C126.871 26.1451 128.1 26.2269 129.364 26.2631C129.479 26.2066 129.673 26.1394 129.81 25.9564C131.989 23.4428 131.188 22.3164 129.525 20.524C128.575 19.4997 127.327 18.6799 126.125 17.8951C124.389 16.7705 122.527 15.9097 120.746 14.7501C120.168 14.3752 119.211 14.5037 118.598 14.1746C117.372 13.5164 115.891 13.674 114.677 12.8084C113.646 12.083 112.177 12.0333 110.915 11.709C110.209 11.5979 109.504 11.4869 108.833 11.3301C108.654 10.9017 108.53 10.5892 108.305 10.1258C107.734 10.4081 107.219 10.8062 106.615 10.8461C105.897 10.9424 105.136 10.7155 104.396 10.6502C103.736 10.5742 103.11 10.4525 102.485 10.3308C101.382 9.98509 100.501 8.86932 99.1666 9.21289C99.0868 9.22359 98.8148 9.01328 98.7585 8.89743C98.5245 8.06501 97.8645 7.98903 97.1465 8.08536C95.5055 8.26438 93.7684 7.42797 92.2219 8.91058C92.1927 8.09182 92.1492 7.76859 92.1637 7.27307C90.1002 7.63215 88.0077 7.17248 86.2545 8.92963C85.7939 7.92197 85.5127 7.34267 85.266 6.71763C84.0929 6.75162 83.0684 6.68341 81.9262 7.24798C80.4303 7.90114 78.842 8.77234 77.0595 7.90088C76.7984 7.77138 76.1602 7.85701 75.9879 8.08578C75.1848 9.05733 74.0134 8.80315 72.9527 9.06884C71.698 9.40172 70.3235 8.84571 69.2248 9.73352C69.0761 9.83573 68.6554 9.72764 68.4288 9.55238C67.8847 9.13177 67.2918 9.25246 66.8567 9.63989C66.1931 10.1403 65.6329 10.5034 64.7933 9.99899C64.5775 9.90454 64.1768 10.2462 63.8233 10.3348C63.321 10.5256 62.7263 10.9344 62.2712 10.8721C60.5758 10.6471 59.1362 11.4161 57.5968 11.746C57.323 11.8239 57.0601 11.9825 56.7754 11.9796C52.6866 12.0757 48.7829 13.5455 44.7286 13.5958C44.2843 13.6143 43.8056 13.6785 43.3378 13.8235C41.1022 14.4114 38.8321 15.045 36.5965 15.6329C33.8132 16.3765 30.9956 17.1658 28.2686 18.0253C25.4618 18.8954 22.7784 20.0781 20.0949 21.2608C16.3381 22.9165 12.6049 24.4457 9.11831 26.6C7.50645 27.5977 5.93993 28.6305 4.82501 30.3021C4.25032 31.1607 3.55051 31.995 2.21958 31.7622C2.07447 31.2881 1.92934 30.814 1.82957 30.3749C1.37423 28.5027 1.15822 26.5984 0.942205 24.6941C0.865992 24.1285 0.869542 23.5521 0.998217 23.0001C1.17402 22.195 1.60005 21.4386 2.36696 20.801C2.55007 20.653 2.76764 20.4593 2.99608 20.3463C6.99756 17.794 10.9755 15.3681 15.3143 13.5109C16.1593 13.1508 16.9697 12.8364 17.7802 12.522C20.1772 11.6245 22.5288 10.692 24.9712 9.82962C26.3637 9.31374 27.8795 9.11039 29.3064 8.54873C30.6989 8.03285 32.1821 7.58705 33.6417 7.26783C34.2346 7.14716 34.7822 6.99142 35.3407 6.91651C37.5418 6.3744 39.7322 5.75149 41.9334 5.20937C45.081 4.45802 48.1943 3.75241 51.3637 3.16266C55.0118 2.50869 58.6709 1.93552 62.3063 1.48894C64.4604 1.19994 66.6472 1.15336 68.823 1.02598C70.7142 0.895657 72.6398 0.719599 74.5075 0.715841C77.0587 0.66151 79.6661 0.723026 82.1937 0.79526C82.8429 0.790441 83.4902 1.07379 84.1267 1.27633C85.2854 1.7379 86.4803 1.8655 87.7115 1.65919C90.056 1.87939 92.4114 2.18039 94.756 2.40059C95.086 2.43859 95.5538 2.29354 95.8058 2.05407C97.0205 0.821635 98.2354 1.39905 99.4504 1.97645C99.7568 2.14101 100.109 2.3406 100.426 2.58598C101.322 3.20619 102.31 3.60834 103.383 3.13528C103.92 2.89874 104.248 3.22491 104.714 3.36805C104.975 3.49756 105.499 3.46838 105.762 3.30972C106.254 3.03813 106.702 2.4433 107.28 2.81818C107.722 3.08789 107.924 3.67788 108.274 4.16566C109.612 3.24575 111.057 3.42205 112.087 4.43562C112.925 5.22815 113.744 5.28272 114.656 5.11922C115.922 4.86717 117.084 4.75239 118.056 5.93825C118.599 6.64703 119.454 6.36768 120.183 6.35215C121.436 6.30745 122.655 6.30853 123.513 7.55085C123.761 7.88771 124.307 8.02018 124.738 8.20908C126.43 9.01043 128.34 9.61806 129.825 10.6939C132.784 12.7649 135.686 15.0082 136.459 18.9356C136.645 20.0211 137.026 21.0395 136.825 22.2594C136.399 24.8256 137.756 26.4535 140.302 27.2637C142.006 27.8577 143.653 28.624 145.439 28.9191C145.689 28.9678 146.063 29.329 146.039 29.4556C145.769 30.767 147.114 30.5042 147.521 31.1078C148.039 31.9432 148.826 31.7553 149.532 31.8664C150.282 32.0125 151.033 32.1585 151.784 32.3046C152.159 32.3777 152.569 32.405 152.875 32.5695C154.419 33.4731 155.938 34.5032 157.447 35.4525C157.844 35.6872 158.239 36.21 158.604 36.2023C159.742 36.214 160.216 37.0143 160.769 37.8039C161.277 38.5585 161.901 38.9684 162.925 39.0366C164.12 39.1642 164.969 40.0376 165.475 41.0803C166.16 42.5514 167.143 43.8181 168.023 45.222C169.038 46.7311 169.893 48.5497 169.835 50.5319C169.817 53.4136 169.799 56.2954 169.736 59.142C170.345 60.0475 171.243 60.3795 172.141 60.7116C179.185 63.2628 185.701 66.7078 192.042 70.6696C195.411 72.7679 197.852 75.8134 200.338 78.8939C202.35 81.4623 202.707 84.417 203.11 87.4069C203.212 87.5578 203.257 87.5928 203.313 87.7087C204.886 89.431 206.884 90.3969 208.927 91.3979C211.528 92.6121 214.025 93.9636 216.326 95.6704C216.87 96.091 217.472 96.3393 218.085 96.6684C219.095 97.2322 220.415 97.3842 220.702 98.9088C220.78 99.1862 221.188 99.5017 221.529 99.6205C222.801 100.026 223.376 100.977 223.494 102.154C223.625 103.124 224.111 103.716 224.836 104.277C227.442 106.437 228.529 109.376 228.759 112.595C228.919 114.383 229.891 115.569 230.909 116.79C232.749 117.489 234.452 118.371 236.318 118.656C238.934 119.086 241.009 120.618 243.361 121.495C245.723 122.453 247.947 123.883 250.114 125.196C252.326 126.545 254.424 127.95 256.567 129.39C257.1 129.729 257.541 130.287 258.005 130.719C258.809 131.557 259.532 132.406 260.301 133.29C260.539 133.546 260.901 133.826 260.99 134.185C261.672 136.232 263.061 138.102 263.207 140.386C263.281 141.24 263.675 142.051 263.909 142.884C265.272 143.359 265.536 145.01 267.001 145.636C269.965 146.843 272.952 148.211 275.674 150.026C276.524 150.611 277.409 151.15 278.271 151.816C279.857 153.043 281.444 154.27 282.996 155.542C283.45 155.893 283.834 156.335 284.139 156.787C287.469 161.606 289.429 166.814 288.846 172.733C288.689 174.276 288.656 175.843 289.762 177.422C291.024 177.747 292.582 178.155 294.14 178.563C294.606 178.706 295.3 178.736 295.423 179.049C296.029 180.531 297.045 180.23 298.218 180.196C299.88 180.178 301.612 180.069 302.912 181.581C303.195 181.873 303.741 182.005 304.162 182.113C306.755 182.67 309.232 183.572 311.546 185.071C313.281 186.196 315.292 186.954 317.004 188.206C320.473 190.743 323.69 193.52 325.612 197.54C325.893 198.119 326.369 198.631 326.729 199.2C329.976 204.605 330.85 210.493 330.061 216.687C329.977 217.274 329.803 217.791 329.8 218.367C329.67 224.637 326.249 229.086 321.999 233.111C321.312 233.738 320.525 233.926 319.651 233.467C318.675 232.858 317.745 232.283 316.724 231.639C316.777 230.521 317 229.463 316.869 228.493C316.773 227.478 315.581 226.774 315.931 225.452C318.673 224.097 320.986 221.977 323.153 219.67C325.457 217.181 326.02 214.432 325.016 211.194C324.301 208.904 323.472 206.671 322.106 204.674C320.786 202.712 319.225 201.07 317.411 199.668C315.088 197.8 312.638 196.195 310.156 194.348C310.203 194.095 310.228 193.68 310.277 193.139C303.367 189.171 295.794 187.226 288.092 186.12C287.633 186.634 287.312 186.965 286.968 187.423C286.638 187.385 286.228 187.357 285.898 187.319C284.942 187.16 284.201 187.383 283.706 188.23C283.338 188.815 282.903 189.202 282.252 189.495C281.178 189.968 280.105 190.441 279.177 191.388C278.431 192.188 276.983 192.588 275.82 192.702C274.328 192.779 273.05 193.239 271.861 194.056C271.152 194.522 270.421 194.825 269.476 194.746C268.657 194.692 267.755 194.936 266.979 195.205C266.203 195.473 265.576 195.64 264.885 195.033C264.658 194.858 264.169 194.841 263.804 194.849C260.055 195.352 256.241 195.082 252.484 194.928C251.995 194.912 251.551 194.93 251.072 194.994C248.517 195.625 246.035 195.588 243.605 194.433C242.867 194.08 242.512 194.456 242.492 195.816C241.533 196.233 240.543 196.119 239.544 195.636C238.976 195.342 238.363 195.013 237.761 194.765C237.933 194.536 238.071 194.353 238.289 194.159C238.017 193.949 237.779 193.693 237.483 193.609C237.153 193.571 236.8 193.66 236.435 193.667C235.407 194.175 234.602 193.625 233.832 193.029C233.106 192.469 233.168 191.72 233.184 190.936C233.213 189.945 233.253 189.035 233.282 188.044C233.399 185.601 234.199 183.396 235.555 181.404C235.957 180.774 236.631 180.355 237.272 179.981C239.763 178.577 242.49 177.718 245.306 177.217C247.723 176.769 250.161 176.483 252.6 176.197C253.318 176.101 254.069 176.247 254.798 176.231C255.367 176.237 255.947 176.324 256.495 176.168C257.795 175.87 259.082 175.78 260.402 175.932C260.858 175.994 261.392 176.046 261.815 175.866C263.494 175.065 264.983 175.564 266.275 176.419C269.367 175.552 272.384 175.641 275.331 176.109C276.867 176.355 278.359 176.279 279.806 176.167C281.253 176.055 282.217 174.774 282.988 173.56C283.517 172.666 283.261 171.672 282.857 170.78C281.879 168.649 280.718 166.666 278.974 165.172C277.422 163.9 275.801 162.719 274.123 161.422C274.332 160.859 274.471 160.388 274.68 159.825C274.237 159.556 273.592 158.984 273.329 159.143C271.751 160.095 270.712 158.712 269.416 158.434C269.245 158.374 268.986 157.957 268.999 157.749C269.013 157.254 269.142 156.702 268.63 156.524C268.199 156.335 267.72 156.399 267.265 156.336C266.434 156.201 265.615 156.147 264.739 155.976C263.568 155.722 262.531 155.861 261.658 156.924C261.638 156.474 261.64 156.186 261.588 155.494C260.659 156.441 259.858 157.125 259.318 157.937C259.053 158.384 259.356 159.125 259.43 159.979C258.205 161.131 256.729 162.234 255.083 163.277C253.665 164.208 252.303 165.254 250.942 166.301C249.328 167.587 247.533 168.732 245.379 169.021C244.262 169.171 243.223 169.598 242.139 169.991C239.662 170.899 237.298 172.039 234.631 172.438C233.753 172.555 232.906 173.204 232.141 173.553C231.311 173.418 230.458 173.121 229.661 173.228C227.017 173.5 224.395 173.934 221.762 174.288C219.973 174.569 218.172 174.769 216.527 173.715C216.255 173.504 215.811 173.523 215.401 173.496C213.523 173.419 211.655 173.422 209.742 173.391C208.888 173.382 208.451 174.058 207.868 174.547C207.387 174.9 206.783 174.94 206.446 174.245C206.344 174.094 206.312 173.851 206.21 173.7C206.109 173.549 205.847 173.42 205.733 173.476C204.306 174.038 203.452 172.219 201.992 172.539C199.94 172.978 198.112 172.072 196.373 171.524C195.787 170.492 197.073 170.689 196.852 169.65C196.037 168.731 195.296 167.144 193.167 167.018C193.136 168.297 194.558 168.6 194.814 169.594C194.389 170.062 193.936 169.712 193.584 169.512C193.062 169.253 192.609 168.903 192.269 168.496C190.191 165.731 189.128 162.665 189.469 159.164C189.543 158.208 189.583 157.298 189.497 156.363C189.394 154.69 189.769 152.954 189.825 151.26C189.885 148.989 190.851 147.42 193.03 146.716C193.224 146.649 193.328 146.512 193.465 146.329C193.534 146.237 193.523 146.156 193.592 146.065C193.38 145.394 192.854 145.712 192.455 145.765C191.259 145.926 190.038 146.213 188.796 146.338C188.352 146.357 187.886 146.214 187.431 146.151C187.458 145.448 187.186 145.238 186.524 145.45C185.592 145.164 184.715 145.282 183.87 145.642C184.789 146.135 185.69 145.891 186.535 145.531C186.852 145.776 187.124 145.987 187.442 146.232C187.018 146.7 186.673 147.158 185.888 147.057C184.818 146.954 183.759 146.932 182.689 146.828C182.965 146.462 183.241 146.096 183.516 145.73C182.923 145.851 182.376 146.007 181.783 146.127C182.055 146.338 182.338 146.629 182.61 146.839C182.14 147.272 181.605 147.221 181.094 147.042C181.3 146.768 181.542 146.448 181.703 146.138C181.28 146.318 180.983 146.523 181.048 147.007C180.579 147.441 180.02 147.516 179.453 147.222C177.379 147.5 175.411 147.064 173.388 146.513C172.671 146.321 171.91 146.095 171.192 146.191C168.708 146.442 166.316 146.475 163.93 145.643C162.316 145.119 160.562 145.067 158.891 144.715C157.764 144.496 156.707 144.185 156.1 142.992C155.773 142.377 155.148 142.256 154.373 142.236C150.776 142.061 148.997 140.613 148.05 137.202C147.359 134.786 147.147 132.305 147.094 129.803C147.074 129.353 147.293 128.872 147.353 128.411C147.436 127.824 147.713 127.17 147.534 126.741C146.984 125.375 147.505 124.113 147.57 122.788C147.693 121.29 148.496 120.319 149.606 119.512C150.715 118.705 152.006 118.038 153.206 117.301C151.569 116.904 151.569 116.904 150.28 117.282C148.911 117.672 147.587 118.096 146.218 118.486C145.477 118.708 144.804 118.84 144.137 118.107C143.854 117.816 143.08 117.796 142.556 117.825C141.633 117.908 140.686 118.117 139.729 118.246C137.575 118.535 135.41 118.743 133.225 118.501C132.44 118.401 131.549 118.726 130.752 118.833C129.794 118.961 128.857 119.54 127.825 118.814C127.508 118.569 126.915 118.69 126.436 118.754C123.588 119.013 120.741 118.983 117.93 118.62C115.62 118.354 113.359 117.547 110.92 117.833C110.122 117.94 109.259 117.562 108.441 117.219C107.362 116.747 106.374 116.345 105.167 116.424C104.882 116.421 104.518 116.429 104.336 116.289C102.818 114.971 100.802 115.077 99.0522 114.448C97.0068 113.735 95.0612 113.461 92.9506 114.073C92.0948 114.353 91.1157 114.32 90.2508 114.23C89.8863 114.238 89.4565 113.761 89.2425 113.378C88.8707 112.729 88.3576 112.839 87.8118 112.706C87.3911 112.598 86.9378 112.248 86.7691 111.9C86.488 111.321 86.3555 110.639 86.1886 110.003C85.6026 107.162 85.1417 104.344 85.1595 101.462C85.1395 101.013 85.0742 100.528 84.9871 99.8813C83.609 99.9016 82.3814 99.5316 81.3043 98.7711C80.5445 98.2561 79.7249 98.2015 78.8364 98.2384C77.1501 98.3824 75.4874 98.3998 73.7811 98.094C72.6551 97.8748 71.3768 98.3343 70.2943 98.4383C68.7711 97.9846 67.3622 97.4743 66.2597 97.1286C65.3132 97.3379 66.1619 98.2112 65.3079 98.2024C64.6932 98.1615 63.9987 98.1312 63.9116 97.4848C63.8263 96.5502 63.7174 95.7421 62.8887 95.3185C61.5487 94.7168 60.1524 93.9992 58.5895 94.4557C58.3955 94.5228 58.225 94.4634 57.9059 94.5062C56.6854 92.9835 55.7278 91.3021 55.4102 89.2469C54.8296 85.5405 54.2942 81.8692 54.1578 78.1443C54.0978 76.795 55.1672 73.2786 56.0392 72.2155C56.8768 71.1982 57.7942 70.1702 58.7224 69.223C58.9744 68.9835 59.3171 68.8142 59.7051 68.6798C60.2074 68.489 60.8909 68.4385 61.2916 68.0968C62.1619 67.3219 62.9759 66.4311 63.7555 65.5861C63.3493 64.9825 62.8706 65.0467 62.459 65.3076C60.6532 66.3726 58.3884 66.1417 56.5935 67.2874C56.2617 67.5376 55.6125 67.5424 55.1918 67.4343C54.2254 67.1938 53.3731 66.8968 52.6498 67.8576C52.512 68.0406 51.8973 67.9997 51.5673 67.9617C51.0668 67.8643 50.4884 67.4895 50.0097 67.5537C49.1321 67.6714 48.2998 67.8242 47.4222 67.9419C46.6698 68.084 45.9971 68.2154 45.2899 68.3925C44.8566 68.4918 44.5575 68.9844 44.1223 69.3719C43.3063 68.7409 42.4087 68.4089 41.2791 68.7661C40.378 69.0104 39.3988 68.9772 38.4759 69.0599C37.9972 69.1241 37.4859 68.9459 37.0634 69.126C34.7698 69.8862 32.369 69.5501 30.068 69.6532C28.6555 69.7193 27.2448 69.4972 25.8559 69.4367C25.3663 69.4202 24.855 69.242 24.4669 69.3763C23.2231 69.79 22.0064 69.5007 20.835 69.2465C17.5022 68.6242 14.1241 67.9668 11.2209 66.0117C10.0187 65.2269 9.20438 64.3078 8.97393 62.899C8.69994 61.1671 8.30083 59.4108 8.07216 57.7138C7.97416 56.9866 7.91058 56.2135 7.89236 55.4756C7.89415 55.1874 7.89593 54.8992 7.94303 54.6461C7.63461 52.9599 8.30531 51.3069 9.69047 50.1338ZM102.842 9.66585C102.808 9.7116 102.693 9.76808 102.659 9.81383C102.601 9.98615 102.577 10.1127 102.565 10.3201C102.713 10.2179 102.828 10.1614 102.931 10.0241C102.965 9.97837 102.864 9.82747 102.842 9.66585ZM111.089 11.192C111.054 11.2378 110.929 11.2134 110.94 11.2942C110.917 11.4208 110.927 11.5016 110.949 11.6632C110.962 11.4559 111.031 11.3643 111.089 11.192ZM313.026 196.061C313.389 196.341 313.797 196.657 314.251 197.007C314.321 196.628 314.414 196.41 314.357 196.294C314.133 195.83 313.77 195.55 313.302 195.695C313.188 195.751 313.026 196.061 313.026 196.061ZM297.649 187.429C297.889 187.397 298.162 187.319 298.391 187.206C298.425 187.161 298.358 186.964 298.326 186.722C298.052 186.799 297.812 186.832 297.584 186.944C297.515 187.036 297.627 187.268 297.649 187.429ZM250.634 186.621C251.281 186.904 251.829 186.748 252.389 186.385C251.287 186.04 251.252 186.085 250.634 186.621ZM257.655 185.679C257.689 185.633 257.588 185.482 257.542 185.447C257.201 185.328 256.77 185.139 256.496 185.217C255.241 185.55 253.997 185.964 252.708 186.342C254.132 186.357 255.51 186.337 256.968 186.306C257.127 186.284 257.366 186.252 257.515 186.15C257.584 186.059 257.631 185.805 257.655 185.679ZM259.491 185.144C259.491 185.144 259.297 185.212 259.433 185.317L259.491 185.144ZM256.97 193.257C256.811 193.278 256.651 193.3 256.502 193.402C256.502 193.402 256.524 193.564 256.535 193.644C256.695 193.623 256.854 193.602 257.003 193.499C257.037 193.454 256.981 193.338 256.97 193.257ZM201.862 158.612C202.691 159.035 203.53 159.54 204.383 159.837C206.87 160.819 209.371 161.594 212.098 160.735C212.531 160.636 213.055 160.606 213.476 160.715C214.544 161.106 215.501 160.978 216.562 160.712C217.11 160.556 217.679 160.562 218.283 160.522C223.135 160.365 227.924 159.434 232.589 158.192C236.114 157.225 239.853 156.641 242.908 154.298C243.308 153.956 243.992 153.906 244.494 153.715C246.093 152.925 247.805 152.366 249.671 150.84C246.35 150.011 243.574 149.602 240.751 149.446C239.032 149.347 237.324 149.33 235.627 149.393C233.611 149.499 231.629 149.559 229.69 149.942C227.672 150.336 225.665 150.811 223.538 150.398C222.708 150.262 221.725 150.805 220.835 151.13C220.412 151.311 220.046 151.606 219.555 151.878C218.465 151.325 217.43 151.176 216.255 151.498C212.752 152.626 209.16 153.396 205.689 154.767C204.799 155.092 203.898 155.336 203.019 155.742C201.887 156.387 201.312 157.246 201.862 158.612ZM247.654 147.327C247.598 147.211 247.496 147.06 247.44 146.944C247.326 147.001 247.132 147.068 247.017 147.124C247.153 147.229 247.255 147.38 247.425 147.44C247.46 147.394 247.574 147.337 247.654 147.327ZM234.178 146.173C234.053 146.149 233.882 146.089 233.757 146.065L233.619 146.248C233.744 146.272 233.915 146.332 234.04 146.356C234.04 146.356 234.109 146.265 234.178 146.173ZM214.843 140.417C216.901 140.922 218.513 139.925 220.324 139.805C220.688 139.797 221.122 139.698 221.463 139.817C222.678 140.394 223.978 140.096 225.084 139.866C226.349 139.614 227.58 139.407 228.728 139.788C230.808 140.455 232.815 139.98 234.832 139.874C236.244 139.808 237.646 139.661 239.08 139.757C241.254 139.917 243.405 140.205 245.555 140.492C245.885 140.53 246.099 140.913 246.337 141.169C246.473 141.274 246.63 141.541 246.71 141.53C247.999 141.151 249.109 142.154 250.295 141.913C251.766 141.675 253.107 141.988 254.518 142.21C254.848 142.248 255.213 142.24 255.691 142.176C255.472 140.848 254.576 140.228 253.76 139.597C250.325 137.014 246.753 134.614 242.765 133.051C239.596 131.831 236.392 130.657 233.28 129.264C231.724 128.568 230.257 128.23 228.558 128.581C227.505 129.504 226.201 130.378 225.725 131.964C225.632 132.182 225.425 132.457 225.197 132.57C222.269 134.649 218.991 136.241 215.702 137.751C215.279 137.931 214.79 137.915 214.345 137.933C212.135 138.107 211.564 138.389 209.216 140.555C211.153 140.46 213.115 139.95 214.843 140.417ZM90.9293 26.4423C90.5757 26.5309 90.2222 26.6195 89.8686 26.708C89.9702 26.8589 89.9684 27.1471 90.0481 27.1364C90.3782 27.1744 90.7318 27.0858 91.0962 27.0781C91.0526 26.7548 90.9637 26.3966 90.9293 26.4423ZM87.4809 29.7843C87.4465 29.83 87.5027 29.9459 87.5136 30.0267C87.6387 30.0511 87.8545 30.1455 87.9687 30.0891C88.1972 29.9761 88.3694 29.7474 88.5525 29.5994C88.451 29.4485 88.2587 29.2275 88.2587 29.2275C87.9959 29.3862 87.7783 29.5799 87.4809 29.7843ZM102.82 26.081L102.933 26.3127L103.071 26.1297L102.82 26.081ZM163.777 50.4809C162.4 48.4032 160.875 46.4277 158.915 44.8397C157.317 43.5321 155.582 42.4075 153.836 41.2021C153.609 41.0269 153.324 41.0239 153.063 40.8944C150.144 39.723 147.304 38.5409 144.464 37.3588C144.377 36.7124 144.277 36.2733 144.156 35.6726C142.811 35.9353 141.407 36.3704 140.482 34.9315C140.381 34.7805 139.971 34.7532 139.686 34.7503C138.616 34.647 137.57 34.4172 136.567 34.5106C134.676 34.6409 132.887 34.9221 131.442 36.5557C130.455 37.6752 129.016 38.4442 128.075 39.5988C126.962 40.9821 125.524 41.4629 124.073 42.1511C123.388 42.4899 122.636 42.632 121.961 43.0515C120.349 44.0493 118.794 45.1629 117.171 46.0799C113.628 48.1183 110.232 50.3426 106.419 51.8825C104.958 52.4899 103.451 53.0622 102.008 54.4076C102.793 54.5079 103.5 54.3308 103.783 54.6219C105.243 56.1125 106.443 55.3756 107.634 54.2698C108.001 53.9738 108.447 53.6672 108.891 53.6487C109.335 53.6303 109.823 53.935 110.425 54.1833C111.752 53.1826 113.369 53.1301 115.112 53.102C118.323 53.1237 121.514 52.6956 124.68 52.6822C125.979 52.6725 127.193 53.2499 128.517 52.8256C128.825 52.7019 129.302 52.9259 129.574 53.1362C130.504 53.7107 131.505 53.9054 132.579 53.4324C133.23 53.1394 133.855 53.2611 134.492 53.4637C135.003 53.6419 135.583 53.7285 136.153 53.7344C137.997 53.8572 139.899 53.8077 141.765 54.0921C143.005 54.2548 144.165 54.4282 145.418 54.3835C146.147 54.368 147.081 54.3661 147.58 54.7516C148.577 55.5228 149.602 55.591 150.751 55.6836C151.776 55.7518 152.753 56.0731 153.799 56.303C155.016 56.5922 156.175 57.0538 157.404 57.1356C158.633 57.2175 159.841 57.1378 160.929 57.979C161.564 58.4697 162.441 58.352 162.993 57.6199C164.53 55.7683 165.819 53.5798 163.777 50.4809ZM97.2652 60.8026C97.2199 60.7675 97.0367 60.9155 96.9225 60.9719C96.9679 61.007 97.0585 61.0771 97.1383 61.0664C97.2634 61.0907 97.423 61.0693 97.5825 61.0479C97.4919 60.9778 97.3559 60.8727 97.2652 60.8026ZM115.443 58.5696C115.408 58.6153 115.339 58.7068 115.35 58.7876C115.35 58.7876 115.475 58.812 115.521 58.847C115.555 58.8013 115.579 58.6747 115.613 58.629C115.613 58.629 115.488 58.6046 115.443 58.5696ZM122.093 58.5C122.046 58.7531 121.954 58.9711 121.987 59.2136C122.008 59.3752 122.144 59.4803 122.246 59.6312C122.498 59.3918 122.761 59.2331 123.013 58.9936C122.957 58.8778 122.9 58.7619 122.855 58.7268C122.559 58.6431 122.309 58.5944 122.093 58.5ZM147.057 62.0202C147.76 62.4194 148.275 62.0213 148.824 61.5774C148.197 61.7438 147.65 61.8995 147.057 62.0202ZM158.204 58.5503L158.407 58.8521C158.441 58.8063 158.465 58.6798 158.499 58.634C158.409 58.5639 158.284 58.5396 158.204 58.5503ZM147.721 85.336C146.127 85.2619 145.029 86.1497 143.941 87.1183C146.521 87.8827 147.48 87.4661 147.721 85.336ZM151.643 82.7943C152.689 83.0241 153.171 82.3836 153.699 81.7781C152.314 81.1413 151.226 82.1099 150.062 82.5128C149.902 82.5342 149.832 82.9139 149.716 83.2586C150.502 83.0707 151.142 82.6969 151.643 82.7943ZM180.343 73.0618L180.514 73.1212C180.479 73.1669 180.458 73.0053 180.343 73.0618ZM195.955 86.1456C194.502 83.5023 192.58 81.2922 189.913 79.8813C189.084 79.4577 188.382 78.7703 187.657 78.2095C187.339 77.9641 187.102 77.7081 186.75 77.5085C183.787 76.0139 180.824 74.5192 177.827 73.0704C176.737 72.5173 175.578 72.0558 174.534 71.5377C173.503 68.7143 172.811 68.3959 170.423 69.6624C170.343 69.6731 170.274 69.7646 170.194 69.7753C169.612 69.9768 169.387 69.5133 169.173 69.1307C168.182 69.3049 167.146 69.1559 166.122 69.0877C165.427 69.0574 164.504 69.1401 164 69.6191C162.592 70.9187 160.65 71.8785 160.42 74.0894C158.414 74.2762 156.928 75.2983 155.396 76.2854C152.549 78.0658 152.114 78.4532 151.273 80.0469C152.159 80.2981 153.046 80.5494 153.909 80.9272C154.386 81.1511 154.031 81.5279 153.869 81.8375C154.548 82.6514 155.355 82.9133 156.372 82.3244C156.635 82.1657 156.807 81.937 157.081 81.8591C157.195 81.8026 157.376 81.9429 157.581 81.9565C157.862 82.5358 156.901 83.2406 157.957 83.8394C158.23 83.7615 158.595 83.7538 158.892 83.5493C160.823 82.5087 162.899 81.9423 165.008 81.6182C165.726 81.5219 166.41 81.4713 166.781 82.1207C167.402 83.107 168.531 82.7498 169.246 83.2298C170.437 83.9338 171.193 83.2153 172.107 82.7637C172.256 82.6614 172.506 82.7101 172.665 82.6887C173.017 82.8883 173.324 83.0529 173.675 83.2525C174.073 83.4872 174.47 83.7218 174.832 84.0022C175.92 84.8435 176.386 84.9866 177.576 84.1689C178.869 83.2139 179.973 83.2715 181.197 84.2178C181.424 84.3931 181.65 84.5683 182.047 84.803C184.66 84 187.367 84.5006 190.062 85.2086C191.074 85.4842 192.051 85.8055 193.063 86.0811C194.075 86.3567 195.076 86.5515 196.087 86.8271C195.942 86.3529 195.966 86.2264 195.955 86.1456ZM156.556 87.606C156.913 86.9411 157.304 86.2304 157.868 85.291C157.036 85.4438 156.443 85.5644 155.93 85.6744C154.978 84.9383 154.069 84.5255 153.117 85.5992L155.339 87.3167C155.442 87.1795 155.58 86.9965 155.683 86.8592C155.955 87.0695 156.273 87.3149 156.556 87.606ZM160.126 86.6745C160.332 86.4 160.539 86.1255 160.746 85.851C160.051 85.8207 160.017 85.8665 160.126 86.6745ZM165.417 87.3632C165.564 87.5492 166.271 87.3721 166.648 87.1569C167.299 86.8639 167.928 86.4093 168.717 85.9333C167.48 85.1943 166.702 85.7511 165.935 86.3887C165.683 86.6282 164.92 86.6895 165.417 87.3632ZM178.263 113.076C177.536 112.803 176.908 112.97 176.187 113.642C177.255 114.034 177.826 113.751 178.263 113.076ZM221.01 111.742C219.064 109.659 216.935 107.723 214.806 105.788C213.13 104.202 211.328 102.881 209.284 101.88C208.591 101.562 208.002 101.106 207.378 100.696C205.598 99.5366 203.666 98.7673 201.617 98.6309C200.618 99.9578 199.358 101.155 198.735 102.555C198.03 104.254 196.331 104.605 195.321 105.851C195.218 105.989 195.08 106.172 194.931 106.274C194.634 106.478 194.268 106.774 193.948 106.817C192.411 106.859 191.379 107.943 190.066 108.448C189.37 108.706 188.674 108.964 187.932 109.187C186.415 109.679 184.694 109.868 183.425 110.697C181.973 111.673 180.072 111.435 178.732 112.643C178.584 112.745 178.48 112.882 178.377 113.019C179.761 113.944 181.135 114.5 182.734 113.71C183.958 114.656 185.155 114.496 186.379 113.632C186.974 113.223 187.445 112.502 188.321 112.673C189.906 114.188 189.94 114.142 191.576 113.017C191.873 112.813 192.181 112.689 192.604 112.509C192.861 113.215 192.972 113.735 193.219 114.36C195.924 113.339 198.787 114.395 201.436 113.258C201.886 114.184 202.486 114.721 203.465 114.754C205.059 114.828 206.722 114.811 208.234 115.184C209.2 115.424 210.065 115.514 210.945 115.108C211.79 114.748 212.635 114.388 213.525 114.063C214.694 114.605 215.922 114.975 216.334 116.524C217.498 116.121 218.548 115.775 219.632 115.382C220.682 115.036 221.851 115.578 222.948 114.978C222.683 113.615 221.824 112.661 221.01 111.742ZM177.412 121.828C178.344 122.114 179.129 122.215 179.771 121.553C179.009 121.326 178.237 121.018 177.412 121.828ZM180.615 119.383C180.605 119.302 180.639 119.256 180.663 119.13C180.617 119.095 180.527 119.024 180.492 119.07C180.412 119.081 180.343 119.172 180.309 119.218L180.615 119.383ZM185.38 118.579C185.388 119.236 185.808 119.344 186.162 119.256C186.63 119.111 187.212 118.909 186.807 118.017C186.305 118.208 185.803 118.399 185.38 118.579ZM188.748 119.155C189.021 119.078 189.25 118.965 189.444 118.898C189.433 118.817 189.377 118.701 189.332 118.666C189.161 118.606 188.956 118.593 188.842 118.649C188.762 118.66 188.795 118.902 188.748 119.155ZM192.648 118.262C192.555 118.48 192.768 119.151 192.893 119.175C193.393 119.273 193.906 119.163 194.681 119.182C194.389 118.522 194.312 117.956 194.006 117.792C193.553 117.441 192.936 117.689 192.648 118.262ZM196.891 119.009C196.947 119.125 197.208 119.254 197.322 119.198C197.71 119.064 198.088 118.849 198.43 118.679C198.363 118.482 198.296 118.286 198.229 118.089C197.841 118.223 197.408 118.323 197.03 118.538C196.951 118.549 196.869 118.847 196.891 119.009ZM200.889 118.843C200.945 118.959 201.069 119.271 201.103 119.226C201.342 119.193 201.571 119.08 201.799 118.968C201.584 118.873 201.368 118.779 201.072 118.695C201.038 118.741 200.889 118.843 200.889 118.843ZM201.89 119.038C202.024 119.431 202.193 119.779 202.282 120.137C203.023 119.914 203.72 119.656 204.69 119.32C203.614 118.272 202.806 118.298 201.89 119.038ZM206.515 118.705C206.604 119.063 206.728 119.376 206.827 119.815C207.17 119.646 207.444 119.568 207.582 119.385C207.823 119.064 207.837 118.569 207.417 118.461C207.201 118.366 206.869 118.616 206.515 118.705ZM212.851 119.912C212.987 120.017 213.168 120.157 213.248 120.146C213.556 120.023 213.819 119.864 214.082 119.705C213.752 119.667 213.422 119.629 213.092 119.591C213.012 119.602 212.92 119.82 212.851 119.912ZM223.618 117.233L223.846 117.12L223.71 117.015L223.618 117.233ZM219.95 121.057C219.939 120.976 219.928 120.896 219.883 120.86L219.633 120.812C219.758 120.836 219.894 120.941 219.95 121.057ZM179.192 147.092C179.204 146.885 179.252 146.632 179.264 146.424C179.105 146.446 178.945 146.467 178.785 146.488C178.943 146.755 179.045 146.906 179.192 147.092ZM181.45 142.758C181.735 142.761 182.1 142.753 182.384 142.756C182.464 142.745 182.567 142.608 182.567 142.608C182.511 142.492 182.399 142.26 182.319 142.271C182.034 142.268 181.681 142.357 181.441 142.389C181.418 142.515 181.429 142.596 181.45 142.758ZM165.593 136.288C165.707 136.232 165.901 136.165 166.015 136.108C166.015 136.108 165.994 135.947 165.948 135.912C165.789 135.933 165.629 135.954 165.504 135.93C165.515 136.011 165.571 136.127 165.593 136.288ZM153.967 136.203C154.464 136.877 155.134 137.033 155.945 136.719C155.462 135.55 155.462 135.55 154.151 135.767C154.117 135.812 154.07 136.066 153.967 136.203ZM155.25 133.069C156.991 133.329 156.991 133.329 158.077 134.459C158.496 134.855 158.766 135.353 159.185 135.75C159.423 136.006 159.74 136.251 160.081 136.37C160.206 136.394 160.583 136.179 160.641 136.007C160.877 134.741 161.279 134.111 162.247 134.064C163.09 133.992 163.921 134.127 164.82 134.171C167.963 134.284 171.022 134.984 174.158 134.152C174.592 134.053 175.092 134.15 175.547 134.213C176.936 134.273 178.371 134.369 179.794 134.383C180.648 134.392 181.582 134.39 182.302 134.006C183.741 133.237 185.21 133.286 186.715 133.002C189.337 132.568 191.97 132.215 194.57 131.619C197.056 131.08 199.52 130.379 202.018 129.633C203.855 129.099 205.703 128.645 207.371 127.763C209.496 126.655 211.631 125.628 213.845 124.879C214.199 124.79 214.621 124.61 214.783 124.301C215.267 123.372 216.166 123.416 216.998 123.263C217.317 123.22 217.615 123.016 218.414 122.621C216.788 122.304 215.707 122.12 214.626 121.936C214.046 121.849 213.455 121.682 212.942 121.792C212.509 121.891 212.164 122.349 211.684 122.701C211.689 121.836 211.578 121.316 210.815 121.378C210.53 121.375 210.256 121.453 210.017 121.485C208.916 120.851 207.72 121.011 206.525 120.884C205.045 120.753 203.587 120.784 202.271 120.056C201.553 120.152 200.846 120.329 200.151 120.299C196.349 120.11 192.603 120.037 188.808 120.505C186.906 120.554 184.993 120.523 183.112 120.734C182.03 120.838 180.869 120.665 179.919 121.45C180.431 121.629 180.987 121.842 181.499 122.02C180.937 122.671 180.197 122.606 179.479 122.702C176.846 123.056 174.213 123.409 171.994 125.023C171.033 125.728 169.893 126.004 169.01 125.176C167.947 125.73 167.09 126.298 166.13 126.715C164.007 127.534 161.817 128.157 159.694 128.977C157.741 129.856 156.015 130.91 155.25 133.069ZM173.068 113.403C173.092 113.276 173.115 113.149 173.093 112.988C172.934 113.009 172.82 113.066 172.66 113.087L172.613 113.34C172.783 113.4 172.943 113.378 173.068 113.403ZM168.254 114.748C168.414 114.726 168.608 114.659 168.767 114.638C168.722 114.603 168.666 114.487 168.62 114.452C168.461 114.473 168.267 114.54 168.107 114.562C168.163 114.678 168.174 114.758 168.254 114.748ZM168.047 111.403C166.886 111.229 166.886 111.229 166.245 111.891C166.872 111.725 167.226 111.636 168.047 111.403ZM162.038 112.62C160.297 112.36 158.903 113.164 157.487 113.806C160.23 113.973 160.812 113.772 162.038 112.62ZM154.815 116.88C154.985 116.939 155.19 116.953 155.35 116.931C155.464 116.875 155.522 116.703 155.625 116.565C155.455 116.506 155.239 116.412 155.125 116.468C154.931 116.535 154.918 116.743 154.815 116.88ZM154.602 114.399C154.852 114.448 155.172 114.405 155.411 114.373C155.491 114.362 155.538 114.109 155.596 113.937C155.186 113.909 154.811 113.836 154.276 113.785C154.444 114.132 154.477 114.375 154.602 114.399ZM151.901 114.844L151.833 114.647L151.685 114.749L151.901 114.844ZM139.484 115.522C139.62 115.628 139.756 115.733 139.881 115.757C139.926 115.792 140.019 115.574 140.122 115.437C139.951 115.377 139.792 115.399 139.621 115.339L139.484 115.522ZM136.233 116.411C136.278 116.446 136.438 116.425 136.472 116.379C136.541 116.287 136.519 116.126 136.577 115.954C136.418 115.975 136.258 115.996 136.098 116.018C136.155 116.134 136.176 116.295 136.233 116.411ZM126.996 116.581C124.753 116.512 122.806 116.526 120.82 117.163C123.402 117.639 125.373 117.498 126.996 116.581ZM118.931 117.005C119.09 116.983 119.205 116.927 119.353 116.825C119.183 116.765 119.058 116.741 118.887 116.681C118.808 116.692 118.728 116.703 118.614 116.759C118.75 116.865 118.851 117.015 118.931 117.005ZM92.6584 111.603C93.1933 111.655 93.6231 112.132 94.1798 112.345C94.6911 112.524 95.2587 112.818 95.7828 112.788C97.5597 112.715 99.324 112.848 101.076 113.189C102.873 113.565 104.624 113.906 106.365 114.166C107.321 114.326 108.508 113.796 108.909 115.264C109.886 115.586 110.851 116.114 111.812 115.409C112.608 115.591 112.588 116.951 113.705 116.801C114.178 115.791 114.867 114.876 114.613 113.594C114.171 113.324 113.728 113.055 113.286 112.785C114.198 112.621 115.065 112.423 115.953 112.386C116.238 112.389 116.566 112.715 116.872 112.88C116.619 113.407 116.388 113.808 116.204 114.244C116.169 114.29 116.305 114.395 116.407 114.546C118.682 114.858 120.896 114.109 123.208 114.086C123.257 113.545 123.248 113.176 123.284 112.842C124.472 112.313 125.54 112.704 126.573 113.141C126.174 113.195 125.639 113.143 125.748 113.951C126.193 113.933 126.648 113.995 127.047 113.942C127.206 113.92 127.322 113.575 127.46 113.392L126.767 113.074C128.307 112.744 129.812 112.46 131.396 112.165C132.183 111.977 133.048 112.067 133.668 111.243C133.523 110.769 133.343 110.341 133.209 109.947C135.546 109.51 137.817 108.877 140.121 110.007C140.814 110.326 141.793 110.359 142.286 109.799C142.997 109.046 143.782 109.146 144.66 109.028C146.21 108.779 147.862 108.681 149.245 107.796C149.691 107.489 150.34 107.485 150.899 107.41C151.617 107.313 152.391 107.333 153.144 107.191C154.922 106.829 156.621 106.477 158.333 105.919C160.079 105.314 161.97 105.184 163.807 104.65C166.887 103.702 170.057 103.112 173.148 102.245C175.339 101.622 177.462 100.802 179.585 99.9825C181.971 99.0043 184.256 97.8751 186.551 96.8268C187.659 96.3079 188.767 95.7891 189.684 94.7611C189.515 94.4135 189.358 94.1468 189.189 93.7992C190.067 93.6815 190.955 93.6445 192.072 93.4947C191.653 93.0984 191.45 92.7966 191.279 92.7372C188.835 92.0779 186.38 91.3378 183.912 90.8051C181.615 90.3318 179.225 90.0766 176.915 89.8106C175.14 89.5963 173.305 89.8425 171.729 88.6965C171.411 88.4511 170.784 88.6176 170.374 88.5903C168.951 88.5756 167.527 88.5609 166.128 88.4196C165.513 88.3787 164.855 88.0145 164.322 87.6747C163.652 87.2297 164.078 86.4733 163.991 85.8269C163.97 85.6652 163.788 85.525 163.54 85.1882C162.742 85.2952 161.83 85.4587 160.907 85.5414C161.117 86.5004 161.049 86.5919 160.218 86.4565C159.176 87.4601 158.001 87.7823 156.637 87.3071C156.216 87.199 155.807 87.1717 155.386 87.0636C154.334 87.6983 153.272 88.2522 151.997 88.1353C151.567 87.6582 151.877 87.2464 152.198 86.9154C152.657 86.4014 152.214 86.1317 152 85.7491C152.343 85.5797 152.686 85.4103 153.028 85.241C152.983 85.2059 152.938 85.1709 152.858 85.1816C150.436 84.6839 150.321 84.7404 149.021 86.848C148.86 87.1576 148.595 87.6044 148.276 87.6472C146.599 88.1602 144.909 88.8805 143.105 87.8474C140.991 89.036 138.634 89.0232 136.331 89.4144C135.582 88.9801 134.851 89.2838 134.144 89.4609C131.954 90.0839 129.764 90.7068 127.608 91.2839C126.433 91.6061 125.1 91.6615 124.083 92.2504C121.934 93.4847 119.585 94.1291 117.122 94.5417C116.848 94.6195 116.564 94.6166 116.301 94.7753C112.684 95.9598 109.101 97.0986 105.494 98.364C99.8338 100.357 94.3981 102.814 90.3152 107.475C90.143 107.704 89.8692 107.782 89.6861 107.93C89.8314 110.214 90.7128 111.33 92.6584 111.603ZM92.0482 88.6917C92.2187 88.7511 92.3892 88.8105 92.5487 88.7891C92.5723 88.6625 92.5505 88.5009 92.574 88.3743C92.4145 88.3958 92.2549 88.4172 92.05 88.4035C92.0265 88.5301 92.0029 88.6566 92.0482 88.6917ZM81.8914 95.8953C82.0854 95.8281 82.2685 95.6802 82.4625 95.613C82.4172 95.5779 82.3265 95.5078 82.2359 95.4377C82.0419 95.5049 81.8134 95.6178 81.6194 95.685C81.7101 95.7551 81.857 95.941 81.8914 95.8953ZM77.4104 91.2725C77.5699 91.2511 77.7295 91.2297 77.8891 91.2083C77.8891 91.2083 77.9126 91.0817 77.9017 91.0009C77.7766 90.9766 77.5717 90.9629 77.4466 90.9386C77.4575 91.0194 77.4339 91.1459 77.4104 91.2725ZM66.3297 91.3194C66.4313 91.4703 66.4984 91.667 66.6235 91.6913C66.8738 91.74 67.2038 91.778 67.4431 91.7459C67.6371 91.6787 67.7985 91.3692 67.8909 91.1511C67.9254 91.1053 67.6425 90.8142 67.5173 90.7899C67.1529 90.7976 66.7993 90.8862 66.5255 90.9641C66.3877 91.1471 66.2844 91.2844 66.3297 91.3194ZM62.1429 90.6882C62.5854 90.958 63.0279 91.2277 63.5392 91.4059C63.6643 91.4302 63.8928 91.3173 63.9961 91.18C64.065 91.0885 63.9761 90.7302 63.8963 90.7409C63.4194 90.517 62.919 90.4196 62.4076 90.2414C62.2698 90.4244 62.2463 90.551 62.1429 90.6882ZM64.1924 79.6774C63.6503 80.7785 62.7565 81.68 61.9987 82.6866C61.5854 83.2356 61.1611 83.7039 60.7931 84.288C60.1024 85.4912 60.458 86.9243 61.8216 87.3995C62.935 87.826 64.0466 88.5407 65.3593 88.0355C65.7473 87.9012 66.2931 88.0337 66.7591 88.1768C67.8507 88.4417 68.9187 88.8331 70.0212 89.1788C70.393 89.8282 70.7648 90.4776 71.1819 91.162C72.0813 91.2059 72.9462 91.2955 73.7658 91.3501C74.1776 92.8991 74.3934 92.9935 75.6861 92.0386C75.1147 90.511 73.1873 90.9753 72.2515 89.4555C74.0847 89.4975 75.6785 89.5716 77.2615 89.5649C79.1635 89.5154 81.0874 89.6275 82.9115 89.3005C84.9749 88.9414 86.9041 88.189 89.0782 88.3498C89.4879 88.377 89.9793 88.1054 90.4471 87.9604C91.2684 87.7268 92.0445 87.4582 92.9112 87.2597C96.7878 86.4928 100.753 86.0842 104.586 84.9941C106.856 84.3604 109.172 83.7619 111.442 83.1282C112.537 82.8168 113.587 82.4703 114.693 82.2396C120.098 81.062 125.256 79.2594 130.484 77.3652C133.154 76.3899 135.803 75.253 138.384 74.2075C141.272 73.0385 144.251 71.9396 146.644 69.8086C147.114 69.3754 147.821 69.1983 148.381 68.8352C150.004 67.9182 151.661 66.9555 153.363 66.0278C153.197 65.3921 153.051 64.9179 152.952 64.4789C152.796 63.9239 152.651 63.4498 152.551 63.0107C152.986 62.6233 153.238 62.3838 153.524 62.0985C152.172 61.7042 152.126 61.6691 151.349 62.2259C150.319 63.0222 149.245 63.4953 147.971 63.3784C147.106 63.2887 146.87 62.7445 147.091 61.9744C146.587 60.6436 145.611 60.034 144.22 60.2617C143.901 60.3046 143.593 60.4282 143.24 60.5167C142.775 60.0854 142.309 59.9423 141.715 60.3511C141.417 60.5556 140.926 60.8271 140.745 60.6869C139.463 59.9129 138.674 60.3889 137.836 61.4062C137.24 62.1032 136.716 62.1324 136.288 61.3671C135.713 60.4159 134.851 59.7499 134.03 59.9835C133.015 60.2843 132.257 59.4811 131.459 59.5881C130.955 60.067 130.554 60.4087 130.406 60.5109C128.143 59.9919 126.279 59.4193 124.493 60.934C123.943 61.3779 123.421 61.1189 122.991 60.6419C122.777 60.2592 122.529 59.9224 122.315 59.5397C121.049 59.7918 119.818 59.9981 118.552 60.2502C117.287 60.5022 116.009 60.9616 114.669 60.3599C114.453 60.2654 114.008 60.2839 113.905 60.4212C113.102 61.3927 112.105 60.6216 111.261 60.6936C109.689 60.7811 108.007 60.3487 106.779 61.7885C106.642 61.9715 106.128 62.0815 105.992 61.9763C105.051 61.3211 104.214 62.3384 103.213 62.1436C103.078 59.9404 105.14 59.8695 106.273 58.9359C105.239 58.4987 104.467 58.191 103.439 58.6992C102.172 59.2394 102.039 60.3677 101.806 61.3451C98.6724 61.601 96.0343 62.8187 93.3382 64.2088C92.8848 63.8583 92.5004 63.4162 91.989 63.238C91.5121 63.0141 90.9083 63.0539 90.4078 62.9566C90.0634 63.4141 89.6627 63.7558 89.0135 63.7606C89.358 63.3031 89.7587 62.9614 90.3281 62.9673C90.8556 62.3617 91.4612 62.0337 92.2808 62.0883C92.5655 62.0912 92.8973 61.841 93.2853 61.7067C91.7239 60.0652 91.7692 60.1002 90.3278 61.1574C88.8865 62.2146 87.3326 63.0401 85.4432 62.8822C84.8285 62.8413 84.1214 63.0184 83.9892 64.1468C84.7525 64.0855 85.4361 64.0349 86.165 64.0194C87.0081 63.9474 87.806 63.8403 88.6491 63.7684C88.1868 64.8587 87.3528 65.2997 86.303 65.6462C83.1535 66.6857 80.0712 67.9219 77.4731 70.0392C75.9862 69.2515 74.8675 69.6895 73.8812 70.8091C73.3192 71.4603 72.7009 71.9957 72.0029 72.5418C70.538 73.7256 68.9824 74.8392 67.4721 75.9879C66.0307 77.0451 64.9646 78.1753 64.1924 79.6774ZM99.7342 55.6176C99.484 55.5689 99.2229 55.4394 99.1884 55.4851C99.0506 55.6682 98.9582 55.8862 98.8313 56.15C99.0017 56.2094 99.2175 56.3039 99.3317 56.2474C99.4695 56.0644 99.562 55.8463 99.7342 55.6176ZM79.7372 64.8406C79.6919 64.8055 79.5903 64.6546 79.5559 64.7004C79.4416 64.7568 79.3383 64.8941 79.2241 64.9506C79.2694 64.9856 79.3256 65.1015 79.4054 65.0908C79.5196 65.0343 79.623 64.897 79.7372 64.8406ZM75.1962 58.8684L75.2886 58.6504L75.0602 58.7633L75.1962 58.8684ZM73.111 59.0659C73.1908 59.0552 73.2705 59.0445 73.3503 59.0338C73.2597 58.9637 73.1581 58.8128 73.0783 58.8235C72.9188 58.8449 72.8045 58.9014 72.6559 59.0036C72.8154 58.9822 72.9859 59.0416 73.111 59.0659ZM72.4401 58.9092C72.4401 58.9092 72.4401 58.9091 72.3494 58.839C72.3041 58.804 72.2243 58.8147 72.1445 58.8254L72.4401 58.9092ZM55.9312 63.8799C56.0908 63.8585 56.341 63.9072 56.3755 63.8614C56.5713 63.5061 56.7561 63.07 56.9519 62.7146C56.6201 62.9648 56.243 63.1799 55.9112 63.4301C55.8314 63.4408 55.9094 63.7183 55.9312 63.8799ZM17.6269 65.0289C17.1409 64.4359 16.7002 63.878 16.2486 63.2393C16.024 64.5857 16.2053 64.726 17.6269 65.0289ZM13.9366 61.4517C14.6275 62.0583 15.4326 62.6084 16.2378 63.1585C17.7083 62.9201 19.119 63.1422 20.7873 64.0701C19.5434 64.4838 18.6876 64.7631 17.752 65.0532C18.0131 65.1827 18.2289 65.2771 18.4447 65.3716C21.6271 66.3843 24.9634 66.4303 28.1566 67.5239C28.8385 67.7615 29.6598 67.5279 30.4232 67.4666C32.7695 67.3986 35.0849 66.8 37.4621 67.2627C37.7123 67.3114 38.0314 67.2685 38.249 67.0748C40.3993 65.5523 43.3405 66.8853 45.4128 65.0854C45.4473 65.0396 45.5724 65.064 45.6975 65.0883C46.8707 65.0543 47.9985 64.9853 49.1372 64.9971C49.3421 65.0107 49.5016 64.9893 49.7065 65.0029C50.3557 64.9981 51.0501 65.0283 51.6177 65.3224C52.7637 65.9913 53.5525 65.5153 54.6276 64.7541C54.3465 64.1748 54.0654 63.5955 53.7498 63.062C54.2521 62.8712 54.845 62.7505 55.3363 62.4789C56.0108 62.0594 56.5566 62.1918 57.146 62.6475C59.2473 61.6663 61.7297 61.7034 63.5844 60.0972C63.8364 59.8577 64.5073 60.0145 64.9625 60.0769C65.4974 60.1285 66.0432 60.261 66.3387 60.3447C67.1746 59.6156 67.6804 58.8484 68.4219 58.6255C69.9395 58.134 71.5478 57.7126 73.0746 57.59C74.3964 57.4538 75.5151 57.0158 76.4198 56.1951C77.7705 55.0679 79.3679 54.5656 81.0106 54.0984C81.638 53.932 82.3107 53.8006 82.9272 53.5534C85.005 52.6988 87.1064 51.7176 89.1952 50.9437C95.621 48.6008 101.8 45.6329 107.765 42.2824C113.616 38.9883 119.344 35.3816 124.676 31.2522C124.893 31.0585 125.066 30.8297 125.193 30.5659C125.261 30.4744 125.104 30.2076 124.98 29.8951C124.284 30.153 123.622 30.3652 123.006 30.6125C122.621 30.1704 122.328 29.7985 122.135 29.5775C120.451 29.4333 118.971 29.3027 117.492 29.1721C116.826 28.1508 115.798 28.659 114.933 28.5693C113.044 28.4115 111.421 29.3285 109.677 29.6447C109.517 29.6661 109.336 29.5259 109.165 29.4665C109.066 29.0275 108.966 28.5884 108.855 28.0685C107.727 28.1375 106.714 28.1501 105.745 28.1977C105.468 28.852 105.249 29.3339 105.029 29.8157C101.757 30.5428 101.757 30.5428 100.029 30.0753C100.785 29.3569 102.048 29.393 102.795 28.3056C101.372 28.2909 100.3 28.4758 99.294 29.1455C98.2424 29.7802 97.3378 30.6009 95.947 30.8286C95.8944 30.1364 95.8635 29.6058 95.8453 28.8678C95.0566 29.3438 94.3948 29.556 93.9252 29.9892C92.6198 31.1515 91.0586 31.3199 89.4068 31.4181C88.279 31.4871 87.1058 31.5211 86.0342 31.706C83.6063 32.0728 81.2456 32.6364 78.7397 32.7258C77.1677 32.8133 75.5594 33.2347 73.9964 33.6912C73.3691 33.8576 72.9104 34.3716 72.3502 34.7347C71.4997 34.1496 70.6566 34.2215 69.9912 35.0101C70.3665 35.0831 70.7872 35.1912 71.1625 35.2642C70.6821 35.6166 70.2959 35.4628 69.9567 35.0558C67.556 34.7198 64.8652 35.2453 62.5009 36.3852C62.1238 36.6003 61.7466 36.8154 61.404 36.9848C61.1991 36.9711 61.0395 36.9926 60.8346 36.9789C59.5054 36.458 58.2979 36.5377 57.074 37.4012C56.4793 37.81 55.7142 38.1595 55.0306 38.21C52.8094 38.3024 50.8676 39.2622 48.8804 40.1869C48.001 40.5928 47.1325 41.0795 46.2441 41.1164C45.6403 41.1563 45.1271 41.2663 44.5686 41.3412C42.8244 41.6575 41.1236 42.297 39.4683 42.9716C37.9271 43.5897 36.5564 44.2672 35.523 45.6398C34.8341 46.5549 33.942 47.1682 32.6437 47.1778C32.0399 47.2177 31.4453 47.6265 30.8742 47.9088C29.9603 48.3605 29.0121 48.8579 28.0982 49.3096L28.0638 49.3553C27.15 49.807 26.1908 50.2236 25.3786 50.8262C22.4051 52.8704 19.477 54.9497 16.6051 57.1449C15.6442 57.8497 14.8973 58.9371 14.1286 59.8629C13.3852 60.3739 13.4723 61.0204 13.9366 61.4517Z" fill="url(#paint0_linear_3_16759)"/>
<defs>
<linearGradient id="paint0_linear_3_16759" x1="205.816" y1="69.3687" x2="134.62" y2="161.453" gradientUnits="userSpaceOnUse">
<stop stop-color="#5665AE"/>
<stop offset="1" stop-color="#615AA6"/>
</linearGradient>
</defs>
</svg>
